<svg xmlns="http://www.w3.org/2000/svg" width="512" height="512" fill="#ffbe5d"><path d="M370.238 441.8a9.99 9.99 0 0 1-4.65-1.148L256 383.034l-109.586 57.614c-3.368 1.77-7.452 1.477-10.53-.762a10 10 0 0 1-3.979-9.78l20.93-122.026-88.657-86.42a10 10 0 0 1-2.531-10.251c1.176-3.62 4.308-6.258 8.073-6.806l122.52-17.806 54.795-111.02a10 10 0 0 1 8.967-5.574c3.807 0 7.28 2.16 8.968 5.574l54.8 111.023 122.52 17.806c3.77.547 6.896 3.186 8.072 6.806a10 10 0 0 1-2.53 10.251l-88.656 86.42 20.93 122.026a10 10 0 0 1-3.98 9.78c-1.743 1.265-3.807 1.9-5.88 1.9zM256 361.737a9.99 9.99 0 0 1 4.651 1.148l96.305 50.632-18.4-107.237a10.01 10.01 0 0 1 2.876-8.852l77.912-75.945-107.673-15.646a10 10 0 0 1-7.529-5.47L256 102.8l-48.153 97.567a10 10 0 0 1-7.529 5.47l-107.67 15.646 77.912 75.945a9.99 9.99 0 0 1 2.876 8.852l-18.393 107.237 96.305-50.632c1.456-.766 3.054-1.148 4.653-1.148zm-26.318 9.715c2.25-1.246 4.38-2.016 3.6-1.44 4.46-2.77 4.76-2.444 5.02-3.405 2.8-1.882 6.215-3.112 2.967-1.07l8.374-4.906-5.184 2.597c.558-.636 2.628-1.673 4.722-2.736l.804-.406 1.036-.463c.682-.295 1.38-.485 2-.674l2.98-.644-.604.033c-.384.032-.937.03-1.584.172l-1.046.205-1.137.354c-.4.1-.78.307-1.176.48l-.593.275-.46.24-4.63 2.468.37-.423c-2.014 1.304-6.165 3.384-7.636 4.062.18-.207-.04-.274 1.6-1.152-11.236 5.855-2.527 2.527-11.74 7.598a33.37 33.37 0 0 1 2.326-1.164zm-10.218 3.695l-3.558 2.73-6.654 3.276c.048.272-4.634 2.973-1.3 1.477l2.85-1.606c-.468.887-8.596 4.84-6.4 4.333 5.12-2.862 5.975-3.17 8.955-5.258 4.783-2.455 8.3-4.16 10.627-5.146 1.372-.82 1.4-1.23 3.17-2.236l-1.208.66-.6-.653c-1.413.946-2.868 1.614-4.52 2.503l7.22-4.92c-2.85.596-10.18 4.98-13.35 6.27 4.075-1.33-2.813 1.883 4.748-1.43z"/><path d="M227.166 372.717l.188-.102-.188.102zm80.1-171.957c.472.52.83.8 1.115.922.275.135.42.186.54.186-.008.01-.188-.142-.506-.405-.17-.12-.348-.296-.54-.5l-.318-.33-.3-.4c-.236-.267-.393-.622-.606-.966l-.77-1.536-6.295-12.732c.087.683 2.486 6.172.597 2.645.567 1.7 3.16 6.487 3.78 7.06l-.973-1.2c2.5 4.1 3.187 7.412 1.574 4.727l.183.36.316.48.364.55c.14.2.292.375.456.6a8.04 8.04 0 0 0 2.93 2.269c1.22.558 2.432.683 3.428.68l2.088.038a37.8 37.8 0 0 0-1.554-.229l-1.008-.12c-.48-.022-.83-.083-1.223-.13-.203-.007-.388-.082-.6-.14s-.472-.125-.73-.274c-.548-.238-1.202-.692-1.94-1.524zm-24.744 175.382c2.42 1.184 2.75 1.266 2.52 1.05l-2.52-1.05zm34.93-172.912l4.186.076-4.186-.076zm-23.526-13.162c-.028.004-.07-.024-.056.1l1.066 1.553-.02-.042-1-1.6zm121.94 25.462l2.28.294-2.28-.294zm-149.553-74.604l4.543 8.06c-.76-.998 1.276 2.967.164 1.345l1.604 2.67-.848-1.683c2.782 4.06 1.718 1.294 5.77 8.3-1.848-4.68-3.16-6.484-4.622-8.724l-1.156-2.125-4.276-6.456-1.18-1.387zm80.578 228.204l-.07-.1c.034.088.054.1.07.1z"/><path d="M346.533 368.68l.3.36c-.194-.47-.62-2.325-.3-.36zm-30.655-165.22c.144-.1.693-.2 1.575-.23l-3.124-.054 1.55.283zm-6.622.115l-.26-.12c-.162-.083-.377-.232-.646-.393-.537-.324-1.174-.875-1.747-1.486l-.752-.976-.552-.946-.552-1.083-1.596-2.412 1.12 2.047.9 1.657.313.5c.84 1.305 2.097 2.538 3.774 3.22zm89.676 9.08l4.425.648 1.74.286 1.044.2c.814.194-.52.114-2.244-.013l-.486-.024-1.246-.04-1.313-.01c-.6.028-.48.14 1.345.457l3.73.422 9.944.948-8.7-1.323c-1.012-.25-.614-.36-.192-.468.416-.1.858-.22-.243-.5-.525-.136-1.552-.33-2.957-.56l-3.62-.526c.48-.1 1.3-.127 2.33-.082l.8.046.43.032.24.02.414.046 3.53.43c4.915.633 10.427 1.466 14.317 2.128 4.06.934 1.812.734-1.58.365-3.42-.373-8.08-.927-9.247-.76 8.908 1.182 7.484.85 11.878 1.104l10.126 1.434-11.16 11.24c-3.55 3.5-6.88 6.65-9.532 8.727l-1.063 1.078-.62.652-1 1.076c-.564.63-.954 1.102-1.283 1.524-.658.845-1.075 1.5-2.16 2.798.014.496 1.646-.96 3.52-2.682l2.82-2.566c1.625-1.5 3.16-2.876 4.057-3.55-.707.604-2.058 1.748-1.78 1.335l7.343-6.943c-3.585 3.317-3.502 2.982-2.186 1.48 1.328-1.514 3.876-4.184 5.568-5.874 2.512-2.47 7.468-7.346 7.186-6.8l-3.597 3.726c2.076-1.902 4.066-3.92 6.003-5.922-5.065-.603-10.15-1.14-14.326-1.994-.187-.192 2.703.15 3.282.13-4.52-.405-8.624-.883-13.157-1.44l-7.155-.9-2.216-.23-2.295-.216 3.78-.182c-5.186.055-16.635-1.84-24.53-3.413.864.25 2.442.565 1.468.565-4.698-.508-8.157-1.512-5.938-1.574-4.65-.07-17.323-3.028-23.657-3.16l-29.136-.52a59.11 59.11 0 0 1 3.428.297c2.5 1.006 3.922 1.133-.72 1.063 4.52.318 2.886-.435 9.6.516-2.683-.067-3.453.557 2.975 1.567 16.188 1.7 27.115 1.476 42.28 2.748.484.565 12.308 2.145 18.027 3.1-2.265.202-6.544-.27-10.978-.806l11.077 1.68 1.6-.807z"/><path d="M361.318 208.848l1.233.27c-.222-.072-.6-.157-1.233-.27zm23.602 2.724c-.058.01-.04.028-.063.044l1.406.167-1.343-.2zM319.5 205.1l-2.662-.064 2.055.17c.687.034 1.02.015.607-.105zm-3.105-1.32l.54-.125-1.057-.197c-.127.1-.02.198.517.322z"/><path d="M391.585 250.474l-1.032 1.155c.66-.656.918-.967 1.032-1.155zm32.852-33.274c-4.503-.63-5-.52-5.952-.478s-2.286.02-8.223-.84l3.45.546c-4.194-.45-11.004-1.398-14.192-1.855l-11.505-1.683c.796-.178-4.007-.94-3.16-1.273-4.6-.56-9.133-1.118-11.556-1-2.813-.563-7.176-.782-10.75-1.497 1.48.492-5.262.17 3.554 1.113-.713-.066-.278.06-.983-.003 5.594 1.197 7.95.887 12.817 1.585 2.87.7-4.82-.26-2.1.245 6.1.634 19.017 3.1 18.76 2.03 4.43.572 5 .882 6.3 1.257.54-.004 1.146.017 1.806.058l.505.035.658.062 1.597.177c2.2.256 4.662.592 7.188.96l14.705 2.244c-4.28 4.136-7.217 7.123-6.386 7.076l7.42-7.412-5.636-.625 1.67-.72zm-95.62-10.816l1.078.17-1.078-.17zM289.98 158.26l1.848 1.703c6.1 11.875 8 16.315 13.207 26.766.283.854-.413-.38-.768-1.007l3.023 6.042 2.432 4.915.4.775c.062.083.114.17.16.262.44.68 1.12 1.176 1.8 1.333.16.072.338.06.496.093.007.012.332.047.557.072l.703.078 2.508.234c2.583.382 9.324 1.652 6.72 1.542 1.27.104 2.718.236 4.16.475.337.376-3.25-.378-3.37-.128 1.144.188 1.58.315 1.86.252-1.97-.004 1.843 1.38-7.148.054-3.374-1.257 6.25.82 4.314-.308-2.982-.44-2.682-.068-2.952-.004-3.8-.572-3.67-.765-3.438-.925-.747.022-2.304-.23-3.932-.475-.702-.1-1.314-.4-1.78-.482-.667-.448-.897-.8-.948-.952-.05-.168.048-.17.16-.15.225.045.5.136-.004-.587l-.197-.077c-.065-.036-.125-.025-.228-.112l-1.37-1.468-3.446-7.346c-5.465-10.4-.57 2.155-6.94-9.67 1.177 1.386-.54-3.77-3.146-9.453 1.683 3.338 5.236 9.3 7.146 13.73-2.415-6.395 4.216 8.362 3.335 4.86-1.8-2.856-4.335-7.862-6.096-11.87l.704 1.25c-1.978-4.2-4.33-6.973-6.866-12.876-1.436-2.848-.956-2.417-.53-2.002-1.3-2.363-2.525-4.452-2.36-4.542zm3.233 6.15l1.812 3.862c-.323-.97-1.03-2.393-1.812-3.862zM167.295 402.7l.636-.257c-.152.036-.4.14-.636.257zM219.4 186.427l-1.118 2.203 1.118-2.203zm-45.953 30.385l-3.543.714 3.543-.714zm-11.94 182.212l.017-.063.004-.3-.02.353zm-43.475-159.8l1.3 1.537c-.014-.13-.5-.698-1.3-1.537zM174.1 216.68l-.22.016-.434.116.653-.132zm58.326-51.063l.625-1.456-.625 1.456zm-3.696 2.06l.604-1.416-.604 1.416zm29.133-47.715l.08.12.084.125.047.072c.006.002.087.157.126.23l.8 1.464-.506-.987-.4-.73a1.99 1.99 0 0 0-.233-.294zm-24.74 40.068l.125-.514c-.18.424-.232.642-.125.514zm-46.54 235.376l-.177.097-.028.127.205-.224zm6.585-4.856l2.554-1.422-2.554 1.422zm-41.5-116.615c.545.703 1.922 2.25 1.134 1.677 1.33 1.05 1.55.665-1.134-1.677zm23.022 133.712c.416-.348.958-.732 1.504-1.116-1.032.683-1.94 1.275-1.504 1.116z"/><path d="M176.216 406.53l1.507-1-1.507 1zm-45.48-143.196c-.117-.193-.326-.465-.645-.797.016.177.262.45.645.797zm67.15 124.816c.37-.423 11.413-6.724 1.905-1.842.072-.75 5.934-3.448 8.383-4.912-1.9.832.723-.837.063-.743l-4.707 2.714c-1.084.246 1.962-1.576 4.462-2.77-3.173 1.293 3.598-2.455-.792-.434-9.03 4.997-15.376 8.592-21.37 12.78 5.135-2.87 10.87-6.098 15.258-8.118l-1.542 1.425c-5.048 2.113-7.86 3.995-12.63 6.446l10.795-5.35c5.205-2.226 1.913-.377-1.98 1.78.972-.5 1.863-.933 2.154-.977zm-4.962 8l.186-.08.423-.285-.6.365zm73.535-283.664l.916 1.4c-.706-1.223-.945-1.56-.916-1.4zm-81.12 284.677l.007-.004-.007.004zm62.627-289.7l.07-.25c-.057.153-.047.17-.07.25zm5.96 14.425c.044-.03.07-.034.144-.123.215-.506.074-.28-.144.123z"/><path d="M247.984 107.554c-.01-.017-.032-.01-.017-.08-.003.047-.025.13.017.08zm-65.806 97.8s.405.036 1.034.035c.232-.085-.015-.108-1.034-.035zm22.372-4.2c.098-.075.166-.1.286-.213.007.006-.286.213-.286.213zM149.215 268.1l-2.107-2.013 2.107 2.013zm98.823-160.877l.8-2.028-.8 2.028zM145.3 213.5l.743-.168-.45.038-.292.13zm-12.818 1.448c.427-.125.617-.217.854-.308-4.52.885-12.924 1.858-13.832 2.575 1.544-.24 9.605-1.066 8.288-.533 3.154-.604 7.906-.885 9.602-1.228-5.258.444-.634-.4 2.857-1.106 3.224-.298-.536.548 2.236.254l7.395-1.14-6.46.862 1.88-.836-.65.148c-10.876 1.844-1.045-.67-12.17 1.312zm.854-.308l1.73-.4c-1.028.158-1.42.273-1.73.4z"/><path d="M92.034 223.454l1.857 1.687-1.857-1.687zm208.753-32.294c.06-.246-2.48-6.157-2.813-5.864l2.428 5.222.385.642zM172.712 314.326l.374-2.118.005-.423c-.136.42-.297 1.83-.38 2.54zm-46.866-97.16l1.936-.484c-.75.143-1.438.3-1.936.484zm45.794 97.385c-.274.877-.685 2.17-.878 2.33-.32 1.837-.32 3.166-.562 5.05.3-2.122.763-4.558 1.44-7.38z"/><path d="M170.183 322.087l.018-.153-.018.153zm132.133-127.42l.836 1.492-.495-.747 1.84 4.02c.256.487.55.937.884 1.5a2.15 2.15 0 0 0-.388-.464l.3.6.372.543c.564.604 1.436 1.334 2.516 1.922a9.36 9.36 0 0 0 3.675 1.119l7.02.57c3.336.293 7.4.775 9.935 1.178-2.353-.35-5.5-.717-4.587-.338 4.742.947 6.96 2 15.3 2.585l-4.84-.693 11.013.64c3.754.943-5.497-.32-7.056-.2 8.526.766 15.382 3.027 19.422 2.782.48.563 1.292 1.504 6.85 2.263-3.922-1.133 3.38.13.182-.938 1.958.002 6.167 1.074 6.538.76l-.548.125c9.366 2.142 12.644 1.395 16.755 1.6l13.696 1.963 6.725 1.04 7.807 1.133c-.008.154.382.495 1.146.86.775.366 1.895.75 3.646 1.04l-.5.483c-.2.513-1.933 2.418-3.673 4.362-1.73 1.935-3.492 3.922-3.563 4.387 6.287-5.798 4.153-4.712 7.204-7.872 2.32-1.778 2.476-1.73 3.157-2.213-.032-.097-.545-.258-2.664-.716.72.145 1.8.32 3.232.53l-8.7 8.583-4.44 4.275-1.857 1.696a19.25 19.25 0 0 1-1.21.984l.97-1.054c-4.856 4.26-6.712 4.1-13.806 12.2l-3.425 3.823c.138-.213.1-.28.17-.408-6.044 5.8-4.855 3.75-11.127 10.573.484-.526.12-.26.613-.793-4 3.454-7.362 7.626-10.125 10.505-2.073 1.36.1-.736.93-2.032-6.773 6.347-13.378 13.917-17.103 18.353l-4.477 3.978c2.403-2.616 5.16-6 4.186-5.448-2.3 2.363-1.678 2.08-5.072 5.262.356-.77 1.558-2.335 2.858-4.134-7.243 6.354-.8 2.27-6.26 6.305-2.17 2.105-3.118 3.647-3.1 4.14l-.665.544c-.42.326-.904.762-1.38 1.2-.438.484-.887.985-1.14 1.418l-.336.5-.105.205c.107.364-.532 2.06-.394 4.25.1 1.052.37 2.32.6 3.567l.665 3.566c.288.5-.114-3.6-.575-5.225.416.265 1.382 4.882 1.887 7.87-.773 1.26 3.495 19.54 1.756 16.202l7.867 40.998c.235 2.967 1.242 8.923.18 5.432.924 5.403 1.872 9.455 2.786 13.503l1.342 6.263c.497 2.564.994 5.386 1.457 8.482.04.95-.984-5.7-1.247-5.297.562 2.542.985 5 1.357 7.423l1.1 7.564c-3.032-1.684-6.27-3.438-10.212-5.403 1.833.944 2.264.943 2.455.93.293.337-4.214-1.836-7.152-3.204-1.568-.92 2.158 1.002 1.28.4l-7.094-3.842-6.58-3.423-12.74-6.348-26.23-13.15c5.353 2.828 7.68 3.32 7.86 3.117l-5.244-2.77c-2.174-.777-6.115-2.85-9.523-4.37-.35-.32-1.892-1.278-.185-.553-5.033-3.017-9.22-4.885-13.718-6.87l-7.125-3.227a148.73 148.73 0 0 1-4.008-1.977c-1.22-.623-2.505-1.018-4.006-1.075l.62-.016a3.35 3.35 0 0 1 .716.02c.272.04.6.02.93.117.333.084.716.123 1.085.28l.585.203c.2.077.452.2.683.3l10.935 4.742-3.597-2.403 7.043 3.033c-3.875-2.44-7.774-3.558-8.033-4.247.918.327 2.956 1.447 3.144 1.247-3.8-2.2-4.266-2.046-7.227-3.496 8.148 3.16 23.208 11.095 31.432 15.142 1.313.602-1.204-.36-1.478-.4 3.324 1.7 5.166 3.03 9.4 5.066 2.783.987-1.83-1.312-3.86-2.43.453-.176 1.476.387 3.788 1.54.27.693 12.47 6.75 15.14 8.828 12.286 6.286-1.365-2.146 10.46 4.3l3.302 2.367 11.77 5.563 2.323 1.123 2.092 1.036c1.38.696 2.728 1.403 4.08 2.147l-1.102-.56c-.6-.04.78.846 1.507 1.366a55.78 55.78 0 0 0 2.447 1.346c-.346-1.95-.774-3.876-1.1-5.492-.317-1.632-.525-2.976-.494-4.142l-.683-2.56-.097-.4-.194-.833-.396-1.724-1.64-7.42-3.08-14.634c.328-2.443 2.54 11.108 3.606 14.607l-1.345-7.825c.84 4.836 1.442 6.698 2.353 9.527-1.04-6.88-2.063-9.027-3.362-15.497.284.472.257-.417-.252-3.417l-.628-.77c.03-.062.01-.4-.118-1.33l-2.278-11.518c.214 2.5-.185 2.68.322 5.67.098-1.115.6 1.4 1.094 4.402-.764-2.566.234 2.96-.036 2.942l-3.15-17.26.225-1.353c-.867-5.732-2.15-11.725-2.686-15.622l.445 1.182c-1.04-6.878-2.483-13.58-3.094-19.74l-2.406-9.718c-.5-2.205-.4-4.505.167-6.554.542-2.06 1.562-3.85 2.684-5.244.068-.1.15-.214.244-.338a7.21 7.21 0 0 1 .286-.353 18.35 18.35 0 0 1 .626-.679c.483-.502 1.096-1.098 1.802-1.766l5.07-4.68c3.75-3.44 7.86-7.276 10.08-10 .38-.284-3.135 3.667-4.7 5.5 3.395-3.184 5.538-6.283 7-6.862-7.62 7.14.742-.043-2.504 3.365 3.493-3.42 7.106-7.098 8.67-8.928-5.662 5.525 1.422-2.566-4.127 3.215 4.084-4.7 10.006-10.76 15.44-15.778.132.24.87-.3 2.92-2.154l1.326-1.827c2.526-2.366-4.476 4.996.607.23 4.677-5.473 15.717-14.8 17.12-17.86 4.245-3.47-7.106 7.604-.802 2.276-3.124 3.657-8.205 7.9-8.914 9.445 3.24-3.4 1.584-.83 3.757-2.94l3.5-3.922-.846.792c2.768-3.07 6.475-6.8 10.452-10.707l7.5-7.312-1.308-.176c-3.47-.197-6.042-.194-8.2-.218-.298-.007-.483.001-.857-.02l-1.637-.143-3.413-.343a188.95 188.95 0 0 1-7.696-1.008c3.382.13-9.32-1.702-2.123-1.318-5.175-1.07-10.383-1.45-10.523-1.204 4.58.757 1.604.32 5.453 1-2.657-.063-8.675-.952-11.117-1.518 1.143.2.716.066.982.003-5.453-1-2.674-.067-6.656-.5-1.192-.626-8.732-1.4-12.318-2.146l-5.34-.13c2.943.003-5.007-.883-5.778-1.386-3.806-.254-7.036-.197-12.75-1.142 2.4.127-5.183-1.073-5.222-1.5-4.877-.915-8.98-1.218-13.018-1.537-2.915-.306-5.808-1.502-8.125-3.58-1.12-1.072-2.176-2.296-2.912-3.765l-.283-.53-.175-.377-.348-.767-.685-1.6c.22.217 1.3 1.793.2-.716-1.063-1.886-2.694-5.304-3.76-7.358l.043.06-.063-.103c-.522-1.006-.885-1.622-1-1.6-2.126-3.367-3.412-5.008-7.18-11.84-.185.73 2.897 6.545 4.3 9.03l1.52 1.995c.38 2.436 3.225 6.245 3.796 7.962-2.843-3.8-8.6-15.978-12.66-22.985 1.57 4.717 6.215 14.37 10.426 22.716l-1.56-3.82 2.173 4.382-1.63-4.475a231.61 231.61 0 0 0 2.896 5.908l1.408 2.792.694 1.392.086.174.152.28.317.567c.22.373.42.76.673 1.114-.294-.416-.52-.853-.754-1.26l-.327-.607c-.1-.193-.124-.263-.187-.396-.213-.47-.396-.9-.553-1.283-.3-.766-.5-1.35-.605-1.717-.2-.735.03-.604.597.663.25.64.48 1.196.695 1.688l.313.693a17.23 17.23 0 0 0 .498.914c.337.6.684 1.12 1.058 1.56.364.443.7.856 1.076 1.194a26.07 26.07 0 0 0 1.122 1l1.273.918a23.21 23.21 0 0 0 3.524 1.911c-1.696-.723-3.446-1.93-4.35-2.816-.476-.415-.717-.77-.746-.84-.015-.087.194.1.8.552 2.296 2.226 4.803 3.36 7.062 3.9l.842.188.585.1 1.004.175 1.904.322c2.487.418 4.88.828 8.54 1.676-.802-.938 9.27 1.265 10.476.767l-3.43-.566 7.364.573c6.634 1.633-6.056-.198 4.117 1.754 9.438 1.454 9.316.573 16.755 1.6-2.517.12-8.468-.326-14.46-1.2l3.597.758c-1.96-.003-10.244-1.266-14.378-1.896 6.918.446-3.176-.633-6.225-1.514-.64.38 3.763.945-1.476.562 4.858.697 5.574.762 11.727 1.833-13.324-2.15-12.24-.144-23.84-2.225 2.7.286 2.258.05 1.062-.294l-2.06-.55-.893-.242c-.26-.075-.38-.118-.566-.184a40.99 40.99 0 0 1-1.81-.354c-.648-.176-1.34-.408-2.057-.657-.693-.303-1.425-.62-2.13-1-.683-.426-1.413-.816-2.04-1.34-.646-.5-1.276-1-1.815-1.586l-.806-.835-.7-.868a12.7 12.7 0 0 1-1.135-1.654 38.12 38.12 0 0 1-.712-1.22l.044.325.368 1.137a12.69 12.69 0 0 0 .66 1.64c-.92-1.17-1.72-2.8-1.908-3.196a43.21 43.21 0 0 1-.85-1.901c-.507-1.213-.917-2.336-1.354-3.484-.872-2.295-1.848-4.686-3.9-8.083-.817-.744 2.96 6.308 2.26 5.064-5.176-9.53-5.93-13.5-9.733-22.364-.422-.398-.755-.1-2.564-2.97.83.77-.086-1.555 1.855 1.708-1.27-2.96-3.224-6.246-4.62-8.722 2.75 6.1-1.733-2.2-2.497-3.2-1.474-3.14.83.77 1.88 2.63-1.135-2.545-2.065-5.776-3.3-6.927.334-.287 4.45 6.486 6.834 11.066l-1.48-3.15c1.256 2.054 1.4 2.483 2.87 5.6-1.2-3.18-.727-3.04-.106-2.468.14.425-.2-.177-.066.23 1.134 2.542 2.183 4.405 2.1 3.726 1.62 2-1.388-3.62-1.966-5.435l-1.98-3.757-8.044-12.148c-2.925-5.443-3.76-8.127-5.563-12.4l-1.004-.924c-2.332-4.84-4.437-9.457-2.355-6.644-.06.246.288.865.783 1.92.128.1.3.33.475.617.075.088.128.13.194.2l-4.534-8.555c4.964 8.446 1.016.043 2.52 1.124l-2.312-4.362-1.3-2.313c.57 1.47.465 1.495.2 1.157-.27-.35-.708-1.086-.943-1.43.07-.345-.25-1.048-.664-1.814s-.906-1.55-1.27-2.243c-.102.218-.195.407-.278.556l.044-.316c-.66.954-1.887 3.547-2.584 5.26.072.04.026.676-.022 1.4l-1.322 4.583c3.2-6.067 1.575-2.332 2.1-2.7-.34.625-.9 1.766-.918 1.927-.3.942.756-1.112.987-1.214l.848-1.855.03-.106.444-1.437c.205-.7.4-1.55.574-2.653-.144-.058-.267.358-.363.75-.102.402-.175.775-.354.906.134-.86.452-1.693.824-2.495.285.54.602 1.228.95 1.945a16.26 16.26 0 0 1 .063 1.056l.86 1.242c-.47-.46-.644.154-1.22-.826-.045.346.07.53.26.8.094.128.206.276.3.444a2.45 2.45 0 0 1 .147.26l.62 1.308 1.374 1.555c-.612-.557 3.043 6.983.037 1.827l-2.453-4.444c-.02-.03-.018-.02-.027-.033l-.043-.04-.08-.073-.134-.1-.12-.084a1.79 1.79 0 0 1-.173.489c-.013-.026-.256-.283-.243-.256-.008-.017.158-.317.167-.3-.148-.093-.182-.2-.22-.43-.033-.223-.05-.534-.075-.846-.026-.225-.06-.422-.144-.353-.08.058-.235.434-.363 1.067.034.676.1.958.095 1.146l-.004.066-.434.916-1.016 2.075-2.478 4.858c2.467-5.332-.15-.747.485-2.897-2.898 5.25-3.305 7.304-4.45 10.204-.987 1.214-1.723 2.06.7-2.715-.357-.924-3.002 6.368-3.892 6.473-7.825 15.906-4.1 13.812-14.124 31.978l.073-.83c-5.486 11.966-9.17 18.614-14.35 29.646l-1.562 2.614-.7 1.154c-.275.43-.552.866-.888 1.26-1.234 1.67-2.87 2.953-4.12 3.814a41.52 41.52 0 0 1-1.594.918c-.393.203-.63.293-.63.293.405-.2.857-.5 1.347-.857l.756-.55.736-.658.73-.693.65-.758c.428-.498.8-1.003 1.086-1.495.62-.948.93-1.773.993-2.098s-.142-.165-.76.697c1.274-1.75 1.654-2.432 2.326-3.536.612-1.035 1.196-2.1 1.775-3.18 1.157-2.16 2.294-4.382 3.594-6.544.046-.55-.992 1.22-1.5 1.966 1.35-2.718 2.337-3.93 4-7.583-.23.103-2.338 3.938-.965.94l2.843-4.676c3.023-6.642.56-3.73 4.55-11.315-.32 1.618-1.206 4.8-2.583 7.83 1.816-3.47-2.078 4.795-.267 1.704 1.928-5.338 3.583-7.558 6.546-14.458-.3.83-.302 1.092-1.084 2.764l5.056-9.64c-1.524 2.25 3.613-8.24 2.67-7.576-5.337 10.298-3.53 7.4-9.66 19.1 1.544-3.4 3.176-7.983 3.714-10.24.07-.094.17-.257.36-.617.405-2.052-.637-.27-1.475-.728-2.062 5.7-4.347 9.08-7.146 15.632-.124 1.43 2.424-3.407 3.868-6.638l-2.464 5.774.33-1.213-7.198 14.2c1.3-2.716 1.5-3.768 1.983-5.28-.927 1.832-1.95 3.594-3.043 5.466.647-.187.836.225-.058 2.017-2.318 4.563-4.208 8.07-5.8 10.83l-1.13 1.934c-.298.5-.867 1.4-1.337 2.03-1.038 1.288-2.143 2.2-3.207 2.835-.378.348-.887.632-1.266.902.535-.2.36.097-.35.623-.72.497-1.992 1.242-3.623 1.656l-.618.167-.5.12-2.84.68c-1.23.3-2.358.588-3.124.83.08-.544-5.266.445-8.224.603-1.467.825.726 1.35 4.353 1.324 6.77-1.543 3.758-1.1 6.88-2.358l3.468-.675c.915-.197 1.878-.437 2.793-.825 1.84-.742 3.465-1.897 4.513-2.92.523-.5.9-.987 1.194-1.302.266-.332.397-.538.397-.538l-.272.48-.707 1a7.54 7.54 0 0 1-.8.944l-.386.413c1.634-1.17 2.938-2.75 3.8-4.378l.326-.602.203-.43.373-.807.67-1.463c.824-1.792 1.366-2.896 1.558-2.574-.46 1.405-1.282 3.164-2.103 4.92l-.154.33c-.05.108-.093.206-.192.386l-.517.947c-.325.64-.78 1.185-1.166 1.75-.4.546-.87 1.025-1.283 1.503-.44.448-.885.852-1.285 1.24l.703-.522c.432-.305.958-.768 1.456-1.27.524-.477.955-1.038 1.3-1.45l.4-.505.134-.203c-.626 1.084-1.233 1.927-1.824 2.548-.56.656-1.103 1.08-1.554 1.44-.446.368-.857.594-1.23.792s-.703.37-1.065.5c-.737.262-1.505.6-2.845.956-.637.222-1.524.352-2.446.543-.667.106-1.462.25-2.423.444 2.927.114-.696.14-3.964.977.68-.004 1.87-.14 3.24-.322l2.148-.296 1.096-.154c.482-.08 1.112-.208 1.64-.32a18.95 18.95 0 0 0 5.008-2.072c.536-.283.883-.493 1.03-.523s.104.132-.2.52c-1.3 1.043-3.344 2.17-5.874 2.693l-.964.172-.484.075-.306.028-1.26.1-2.637.226c-3.58.315-7.316.717-9.917 1.55l.246-.14c-7.882 1.027-10.572 1.942-13.47 2.693-3.4.195-7.95 1.276-11.573 1.836l.05-.274-5.102.853c2.368-.83 6-.86 10.385-1.567l-.617-.406c5.15-.16 8.404-1.527 12.273-2.517-5.66 1.25-16.17 2.228-17.375 3.373l-3.6.024-1.667.423c-2.7.015-.082-.953 5.015-1.806.906-.006 1.358-.01 1.104.13 2.34-.562 4.465-1.255 10.224-1.978l-3.027.702c7.154-1.004 13.626-2.136 16.005-2.97l-30.194 4.16c-2.7 1.513-6 2.62-7.3 3.853-6.475 1.133-15.283 2.556-20.984 3.004l.5-.276c-2.77.296-5.302.72-7.403 1.144-2.95.155 1.915-.83-.135-.68l-9.264 1.696c.507-.545 8.345-1.687 12.062-2.26-.697.14-2.104.424-1.64.42 4.357-.44 12.308-2.397 14.297-2.004 2.092-.423-4.213 1.115 2.933.112 4.818-.443 6.288-1.27 6.758-1.542.04-.273-7.556.732-4.97.035-3.717.574-5.15 1.126-9.946 1.565 3.684-.567 8.616-1.826 10.64-1.705 7.223-1.548 5.998-2.623 2.55-2.2.875.266-13.236 2.407-3.6 1.52-4.224 1.12-12.072 2.264-17.647 3.4l.24-.136-6.96 1.138c.962-.28 3.055-.704 3.086-.974l-8.935 1.967c-.085.02-.156.034-.155.04l-.118.047.132-.062.36-.092.544-.148c.27-.082.356-.13.302-.15s-.25-.015-.546.01c-.274.02-.812.085-.853.08-.635.042-1.616.168-2.158.14-.007.206-.2.412-.205.566-.002.155.194.26.767.294 1.243.116.375-.275 1.418-.46 0 0-.318.208-.522.398-.216.192-.318.368-.318.368l-.153-.04s-.033.137-.01.266a.93.93 0 0 0 .09.25c-.52.057-.987-.182-1.258-.38-.142-.098-.252-.184-.424-.198-.164-.016-.424.044-.685.2l.87.233.818.24-.217.016c.356.452.698 1.092 1.4 1.992 3.734 3.864 7.332 7.515 10.03 9.924-1.776-1.167-2.9-1.343-1.104.936-1.125-1.182-2.865-2.913-4.75-4.75l-2.874-2.78-2.5-2.38c-.023-.066.05-.1.33.068.477.35 1.2.92 2.053 1.63 1.704 1.417 3.92 3.38 5.685 5.208-.475-1.276-2.886-3.38-5.13-5.324l-1.618-1.412-.665-.597c-.07-.057-.135-.115-.2-.172-.224-.23-.287-.44-.026-.596-.616-.8-1.095-1.14-1.713-1.53-.6-.374-1.264-.723-1.874-1.176.27-.132 1.02-.242 2.326-.214-.632-.44.667-.357.47-.798-1.08-.32-3.044.02-4.773.37 1.346 1.202 2.644 2.32 3.43 3.273-.25-.2-.784-.6-1.013-.685.707.797 1.305 1.393 1.852 1.878l.972.833 1.857 1.63-.278-.358c4.815 3.975 2.482 2.97 4.944 5.7 1.07.935 4.6 4.6 4.294 3.75l4.4 4.988.182-.645c2.703 2.587 3.018 3.437 5.696 5.547l.48-.267-6.525-6.617c3.492 3.164 1.292.555 5.074 4.088-4.54-3.622 2.724 3.063 2.8 3.8l2.932 2.444-.795-.58c1.95 2.278 2.683 2.342 5.13 4.824-2.74-3.08-4.4-5.224-8.42-8.613 2.938 2.45 8.583 7.495 9.925 8.778 3.02 2.638 4.744 4.876 7.385 7.534-5.296-4.868.688 2.9-9.365-7.428.26.114 1.08.944 1.36 1.305-.906-1.823-6.215-6-8.63-7.996.306.84-2.1-1.372 1.716 2.647-1.128-1.446 3.945 2.64 7.496 6.544l-1.243-.054 5.426 5.426-.542-.474c1.693 2.397 5.934 5.64 9.498 9.553 2.938 2.45 13.252 12.834 9.35 7.817 3.033 3.682 6.475 6.113 10.258 9.646l-4.383-4.744 4.85 4.104c.463.388.85.672 1.53 1.2.876.793 2.117 1.817 3.406 3.897.254.986.767 3.016-.127 1.316.74 1.806 1.166 3.868 1.1 5.994.02.532-.068 1.062-.122 1.597l-.1.775-.094.526-.38 2.13-1.495 8.6c-.94 5.6-1.704 10.715-1.877 13.734-1.256 7.1-2.4 8.063-3.745 18.114-.246 2.123 1.045-1.5-.324 5.063-.137.435.486-6.47-.712.905-.27 5.352-2.46 12.257-3.084 19.172-.845 3.563-1.83 9.827-2.105 8.44 1.092-5.686 2.373-13.776 2.345-15.048.165.84.986-4.008.496.236 1.855-8.56.652-5.65 2.236-13.343-.108-.567-1.233 3.883-1.34 5.572-.685-.08 2.288-15.312.294-8.574-1.477 8.257-.48 10.955-2.425 17.996.08-2.942 1.2-7.374 1.112-11.145l-1.283 5.84-.242 4.357-.057-.27c-2.405 10.292-.95 9.74-2.205 19.102 1.396-5.3.964 1.448 1.95-2.557-.98 6.236-1.854 10.8-2.54 10.715 1.442-11.734-.606-.784.562-11.66-.546 1.725-.555-2.732-1.73 3.667-.754 7.3.937-2.064-.075 5.18-.134.415-.27.847-.327.578-.054.844-.13 1.506-.22 2.088a22.4 22.4 0 0 1-.257 1.392c-.133.614-.283 1.35-.27 2.443l-.053-.5c-.48 1.56-.5 2.38-.492 3.008.002.662.03 1.143-.47 2.717.578-1.22.46-.18.42.743.482-.308.984-.638 1.427-.975-.374.15-.667.23-.917.27l.98-2.938a21.56 21.56 0 0 0 .802-3.31c-.18-.147-.337-.16-.443-.322-.1-.2-.166-.43-.095-1.426l-.425 2.772c.027-.55-.006-.977.008-1.538l.107-.432.1-.436.06-.242.1-.463.56-2.64-.247 2.117c-.053.545-.108 1.12-.075 1.187.03.337.102.484.186.574.17.167.4.155.523.622-.283 1.13-.336 1.604-.356 1.92-.022.327-.015.516-.215 1.3-.268.24-.62 1.117-1.046 2.53 1.17-.275 3.86-1.402 6.055-2.288l-1.56.794c-1.242.865-.9.825-.1.5.793-.308 2.005-.864 2.1-.817.03-.016.343-.265 1.3-.846l1.62-1.02c-.616.37-1.43.955.048.272 4.52-2.5 3.98-2.882 8.5-5.38.495.1-3.13 2.577-.214 1.237 1.1-.262 4.58-1.23 10.506-4.67.372-.336 1.9-1.225 3.707-2.23-.245.15-.557.327-.66.408l4.192-1.802c-3.17 2.298-7.06 3.415-10.248 5.724l-.046.623c-2.683 1.413-6.22 3.53-7.767 4.655 4.132-2.07 4.93-2.647 9.453-5.15.796-.04-2.3 1.874-2.757 2.15l.542-.627c-5.66 2.48-7.92 4.738-14.757 8.222-1.035.52-.428.156-.246-.053-2.577 1.642-5.2 2.972-7.8 4.302-2.603 1.338-5.044 2.6-8.096 4.573l.005-.173c.001.054.003.107-.01.18l1.85-1.265c-.33.195-.688.408-1.594.9l.705-7.156 1.187-10.894-.193-.1c-.273.858.244-2.112.6-3.692l.001.01 1.222-11.016a36.81 36.81 0 0 0-.901 3.695c.026 1.282-1.417 8.523-.704 7.618-.226.826-.424 1.8-.604 2.808l-.258 1.558-.265 1.737c-.38 2.52-.706 4.82-1.076 6.357.658-2.8.63-1.85.483-.27-.148 1.597-.417 3.854-.308 4.12-.35 1.016-.667 2.896-.947 4.48s-.532 2.914-.784 3.002c-.17.625.044-.16.297-1.292s.542-2.6.557-3.5c.202-2.465-.34.124-.876 2.7-.53 2.537-1.055 5.063-.7 1.768l-.277 1.984 19.255-10.5 4.977-2.866-3.96 1.866c3.105-1.556 10.33-5.472 10.98-5.558l-7.808 4.266c.104.542 7.02-3.693 7.495-3.576l8.078-5.233-3.73 1.928c2.192-1.514 10.142-5.257 15.935-8.22-2.968 2.376-8.68 4.584-14.604 8.026-4.273 2.556 3.042-.813-1.042 1.53 1.158-.42 3.867-1.865 5.123-2.73l1.704-.748c-3.4 2.534-11.8 6.784-17.092 10.2.454-.318.844-.606.962-.755a147.75 147.75 0 0 0-6.516 3.204l-4.008 2.14-4.356 2.4c3.045-1.366 4.308-2.2 6.012-3.17.288.03-5.217 3.005-7.42 4.367 2.76-1.343 3.04-1.38 3.036-1.28.003.096-.27.325 1.568-.58-3.776 2.162-6.925 3.767-11.478 6.082-2.145.848 2.244-1.566 1.975-1.8-2.833 1.624-4.466 2.213-6.726 3.262a66.33 66.33 0 0 0 1.095-6.601c-.904 4.87-1.036 4.593-.872 2.53.16-2.044.632-5.955.815-7.673l-.324 1.756c.122-2.965.627-6.002 1.383-8.347-.563 4.2-1.38 8.328-.73 6.837l1.305-8.494-.188 2.748 1.8-10.98c-.086-1.517-.144-4.036-.42-5.398.685-2.16.958-5.282 1.2-7.4l-.027 1c.985-4.017 2.296-13.104 2.13-13.918.764-2.86-1.625 20.86 1.62.277 1.336-7.806-.117-5.024.318-9.537 0 0 .054.27.192-.163.655-3.404.352-3.8.68-6.645-.496 2.023-1.012 5-1.038 5.972-.22-1.097 1.255-7.1 1.4-9.78.03 3.502 1.367-6.563 1.23-3.872 1.56-6.727 2.32-14.074 2.48-17.72 1.56-4.48 1.285-8.103 2.924-15.524-.22 1.146-.462 3.253-.82 4.848-.244 4.35 1.586-7.7.906-1.068.165-1.417-.242-.144-.412 1.3-.377 2.527-.57 4.936-.238 4.34l1.478-6.023-.247 2.148 1.843-7.72.135-.573.06-.315.058-.275c-.04-.092-.108.013-.178.172-.08.185-.116.322-.196.575.2-1.004.204-1.865.01-2.814-.2-.923-.585-1.824-1.183-2.582-.455-.613-1.684-1.746-2.673-2.715l-3.077-2.966-11.456-11.076c-2.26-.25-17.237-15.966-23.356-20.73 1.76 1.154 3.063 1.438 2.35.336 1.272 1.158 4.186 3.2 6.896 6.016.3.596 3.56 4.14 1.162 2.16 7.827 7.407-.617-1.457 2.024.4-8.644-8.235-14.23-12.538-19.855-17.562l-.02-.25-4.293-3.748c3.265 3.312 2.547 3.72-1.55-.663l.55.48c-2.216-2.625-7.582-7.3-11.37-11.073l-2.913-2.2-1.8-1.926c-.572-.598-1.055-1.125-1.463-1.6-.818-.93-1.34-1.616-1.702-2.167-.724-1.1-.83-1.682-1.4-2.584-3.867-3.807-7.213-6.887-10.538-9.864l13.017-2.662c1.133-.07 3.17-.3 5.406-.547l3.426-.4 2.884-.325c2.634-.257 4.114-.335.855.366 7.435-1.412 5.64-3.164 18.63-3.937l-3.278.84c12.26-1.856 29.654-5.106 35.36-5.554-4.34 1.933 15.514-.93 17.877.004-.65-.197 3.946-.962 4.596-1.213 1.032 0 2.734-.102 4.48-.62-4.82.444 3.175-1.787-5.9.047 2.252-.765 4.846-1.532 8.144-2.286a121.39 121.39 0 0 1 5.522-1.12l3.243-.55.867-.136c.145-.042.28-.076.426-.103.15-.012.283-.08.425-.128s.295-.075.426-.16l.142.52c.008.02-.26.078-.643.205-.196.05-.435.064-.68.125l-1.454.185-4.023.503c.866.267-3.268.838-4.935 1.262 7.484-.938 7.04-.562 6.63-.237-.205.163-.4.312.408.278.404-.017 1.06-.08 2.1-.2l.846-.1c.295-.04.687-.086.884-.14a6.17 6.17 0 0 0 1.653-.526c.393-.364.432-.453.666-.643.1-.1.303-.176.536-.413.12-.114.277-.23.444-.4.146-.2.352-.38.543-.647-.405.46-.593.8-.5.835.054.03.163-.036.362-.193a8.13 8.13 0 0 0 .364-.312l.42-.538c.024.013.172-.5.334-.965l.457-1.4c.793-1.1.975-1.15.842-.645-.066.252-.2.64-.398 1.1l-.306.733-.168.4-.145.3c-.32.8-.898 1.45-1.156 1.826-.268.365-.226.48.495-.053-.7.92-1.8 1.824-3.12 2.354-1.18.5-3.156.756-4.622 1.096-3.022.633-5.066 1.155-4.067 1.35 2.414-.3 4.15-.6 5.556-.897a32.97 32.97 0 0 0 1.894-.467c.497-.2.96-.32 1.38-.578.86-.432 1.642-1 2.512-1.85.23-.197.44-.44.66-.703.24-.243.442-.544.667-.86.254-.296.406-.7.652-1.06l.82-1.57.736-.844c1.407-3.292 1.247-4.016 1.862-5.896.225-.086.736-.847 1.794-2.886 2.064-5.714 3.72-9.367 5.52-14.688-6.06 13.53-6.077 11.16-12.392 25.053.85-2.202 5.485-11.964 5.12-12.87l.4.362c1.956-4.583 3.913-9.162 6.834-14.688l-1.422 3.55c3.336-7.588 6.8-12 8.916-18.24-1.063 2.05-1.878 3.736-2.437 5.05 1.676-3.926 4.1-8.7 6.22-12.813l3.46-8.98c.197.2 2.9-5.25 1.978-2.436 3.415-6 4.15-9.276 5.797-12.9 3.63-6.1-2.485 5.6-2.14 6.544 2.264-4.312 4.5-8.806 6.397-12.864l3.396-7.3 3.237-7.25c-1.437 2.67-2.184 3.98-2.2 3.7.313-.26 3.066-5.936 4.625-9.083l1.007-2.814c2.7-4.93 2.24-3.557.144 1.273.716-1.406 1.46-3.016 2.24-4.73 1.823 3.378 3.93 7.14 5.557 11.225-1.83-3.315-3.75-7.12-5.557-10.776l-5.875 12.122c2.523-5.344 4.368-8.957 5.875-11.75l4.986 11.194 3.15 6.695 2.045 4.13.98 1.923.914 1.746c-.062.246-1.528-2.004-.2.72 3.225 6.25 1.446 1.335 2.76 3.135-1.293-2.38-2.172-4.157-2.852-5.716l-1.2-2.8-1.38-3.425 1.233 1.87c.022.208.637 1.54 1.314 2.997.42.937.866 1.924 1.027 2.408l.896.534c-.74-.084 1.236 5.003 3.34 8.732-1.503-4.074-1-3.018-.888-4.388 3.267 5.1 2.404 6.375 6.028 12.1-.404-.363-3.142-5.57-1.03-.945 1.838 3.784 2.027 3.065 3.416 5.526-1.875-2.618-1.862-1.714-3.942-4.528-3.366-6.673-1.327-2.707-4.765-9.157l2.34 5.74c-2.88-5.64-2.574-3.865-2.984-4.244 4.3 9.933 4.318 6.957 7.274 13.257 1.806 2.85-2.816-5.878-.158-1.34 2.812 5.868.963 1.18 4.398 7.627l-.757-1c.7 2.14 2.03 3.95 3.22 6.242 1.4 2.478.205-3.688 5.406 6.77-.384-.45-.56-.596-.614-.57l-8.974-8.25 16.975 35.312c.658 3.274-4.964-8.458-4.94-7.535l-2.6-5.684c.48.153 5.896 11.695 3.975 6.348-5.12-9.783-6.96-14.46-12.268-23.518.67 3.298 6.24 12.3 8.66 18.703-1.216-2.6-2.37-4.713-3.517-6.76l8.757 18.56.9 1.374-3.686-7.923c2.8 5.865 5.665 10.574 6.42 10.682l-.5-1.046 1.216 2.02 1.913 4.15zm-7.582 186.96c.378.13.687.213.93.242-.254-.03-.046.147-.93-.242zM246.27 125.302l9.73-18.976.454.947-.454-1.16c-2.563 3.864-5.444 8.54-6.243 9.33-.396.388-.255-.23.7-2.413.96-2.173 2.752-5.928 5.533-11.56l.36.73.792 1.4-1.15-2.507c-1.563 2.994-3.747 7.424-5.736 11.615l-1.798 4.796-2.043 5.73-1.723 4.953c-.437 1.3-.693 2.1-.645 2.08.987-1.214 1.63-3.376 2.954-5.816l-.74.852zm-4.597 4.6c-2.3 4.347-1.558 3.465-1.673 4.26l2.202-4.674c-.345.558-.567.8-.53.415zm-1.32 4.105c.25-.493.47-.9.607-1.117l-.607 1.117zm42.42 23.258l-.236-.446 1.515 3.2c-.175-.44-.544-1.26-1.28-2.754zm-3.87-9.217l-.924-.845 1.42 2.998c.02-.425.007-.854-.497-2.153zm-12.855-29.42c-.354-.4-.775-1.03-1.3-1.894l-1.76-3.022c-1.152-2-2.146-3.635-2.402-3.442-.288-.22.363 1.24 1.08 2.8l2.608 5.406c.113.022.368.344.738.9-.407-.914-.72-1.68-.85-2.163-.15-.522-.104-.738.273-.4 1.55 5.045 2.58 3.875 4.85 8.957 1.18 1.386-2.334-5.725-3.237-7.153zm-103.38 248.26c-.08.146-.312.654-.613 1.374l.354-3.9c1.312-6.84 3.146-12.185 3.44-18.493.688-2.858 1.36-4.337 1.95-5.758l-.768 3.823c-1.848 17.513-2.732 8.827-4.362 22.954zm2.093-76.158c.54.473.797.58.797.58-11.947-10.034-21.354-18.736-27.33-24.623.845 1.463 5.986 6.97 8.412 9.6L144 274.46l-1.13-1.674-4.267-3.497c.855 1.324 4.085 4.37 6.022 6.635.254.108 7.483 6.305 9.6 7.93l-5.185-5.557c1.367 1.535 8.662 8.48 11.615 11.17.24-.133-4.408-5.225-5.425-5.423-.315-.85 5.368 4.686 2.066.886 2.273 1.927 5.043 4.603 7.62 7.197l3.636 3.727c1.107 1.158 2.116 2.16 2.685 3.026l-.063.476-.076.455c.97 1.9 1.183 2.606 1.526 3.408.073.204.146.418.22.666.045.25.076.537.103.882.04.684-.107 1.595-.455 3.008.295-1.767.272-2.48.233-2.765-.084-.283-.15-.105-.256.1s-.218.445-.27.33-.006-.58-.127-1.772c-.04.77-.27.78-.38 1.175-.05.196-.177.48-.257.994a58.16 58.16 0 0 0-.54 2.92c.062 4.745-1.532 5.73-1.527 10.2-.764 2.86.024-3.215-1.07 2.482-.678 6.633-.292 6.3.257 6.822 1.225-6.102.376-7.026 1.387-12.015l-.65 10.154c.465-1.813.714-3.17.868-4.318a45.29 45.29 0 0 0-.451 5.238l-.08 2.356c.975-5.65 1.85-10.67 2.267-11.5l.167.83c.62-1.953.962-5.252 1-6.794l.562-3.746c.168-1.203.343-2.35.385-3.452-.01-2.17-.563-3.726-.626-4.333l.16.286a3.98 3.98 0 0 1 .313.649l.274.676a2.13 2.13 0 0 1 .112.314c-.762-3.355-2.28-4.883-3.687-6.24l-5.817-5.622zm33.963-83.217c-3.946-.555-8.262-.925-25.9 1.835l1.38-.278c-9.004.6-17.226 3.44-28.17 4.244 5.196-1.18 4.918-1.102 10.583-2.898l-5.594 1.132c1.475-.83-4.105.3-8.248.873l3.548-1.246c2.514-.155 8.963-1.017 8.75-1.152-1.398.284 8.632-.332 13.985-1.322-.625-.404-11.964 1.444-7.003-.085-4.425.982-5.05.58-9.702 1.43 4.437-.984 1.014-.823 4.3-1.66L149 209.67c-.223-.132 11.116-1.98 4.746-1.665-3.035.7-11.285 1.574-11.356 2.117l-.212-.133c-5.764.722-2.42 1.106-9.522 1.834-.045.274 1.328.26 3.848-.16 2.12-.427 2.396-.833 6.787-1.546 2.032.122-5.316.72-2.16.967 1.568.123 11.577-1.986 8.47-.742l-5.753.72c-.07.544-4.23 1.118-4.052 1.522-3.48.702-6.876.595-10.393 1.57-1.438.554 1.25.805-4.717 1.393-2.372-.05-6.965.458-11.602 1.086l-3.452.486-3.818.57-6.248.984-4.9 1.053c.5.093 2.937-.274 4.943-.564 2.014-.292 3.53-.5 2.08-.075l-7.66 1.24.253-.242a55.5 55.5 0 0 0-3.906.66l2.968 2.618c-.918-.696-2.05-1.705-3.12-2.667 1.963-.383 3.863-.73 2.525-.88l-3.957.416c.837.912 1.568 1.684 3.232 3.22-.653-.582-1.262-1.1-1.336-1.065 2.78 2.875 4.512 4.35 5.647 5.168 1.148.832 1.776 1.084 2.576 1.738 1.596 1.306 2.038 1.554 1.9 1.283s-.848-1.083-1.682-2c-1.68-1.844-3.798-4.087-2.982-3.688l14.28 13.496c-1.328-1.044-2.663-2.098-2.366-1.494 3.277 3.55-.22.382 4.65 5.1.18-.875 6.434 5.617 10.163 8.646 1.386 1.78 1.672 2.146-1.834-1.26.06.74 4.9 5.188 6.53 6.847 1.053.857 2.753 2.415 3.875 3.357-1.232-1.54-.42-1.176 2.76 1.633l.25.1c-4.88-4.944-12.24-12.863-15.708-15.544l1.05.686c-2.73-2.957-6.017-5.853-8.87-8.416-1.427-1.282-2.746-2.48-3.834-3.56-1.067-1.06-2.003-2.1-2.355-2.766.494-.03-.92-1.014-.355-1.2l-3.927-3.252 1.054.694-5.67-5.422.36-.097v.1c2.845-.896 5.8-1.72 8.403-2.42-.146-.2-.533-.227.96-.614a38.39 38.39 0 0 1 3.89-.667l.008-.001c2.455-.3 4.13-.2 7.162-.503l-9.177 1.4c-.3.24-.178.424.475.516.33.045.775.07 1.402.063a50.76 50.76 0 0 0 2.769-.173c-1.854.285-2.588.7-.283.4.238-.137 6.036-1.13 3.774-1.115 8.783-1.42 23.18-2.477 36.44-5.153-9.538 1.837 7.77-.6-2.866 1.107 7.53-.463 6.314-1.54 13.913-2.545.68.128-4.134.57-5.813 1.263 12.646-1.584 21.133-4.1 33.36-5.676l.592.407 7.512-1.3zm15.574-18.35l3.047-6.552-.327.63 2.803-6.566c-2.1 3.844-3.866 6.195-1.377.587-.047.552.967-.945.13 1.018 2.08-3.555 6.324-11.512 4.623-9.73-2.87 7.387-1.655 1.234-3.938 7.026 1.043-3.198 2.697-6.06 3.896-8.973-1.088 3.112 1.153-.282 3.5-4.605.84-1.97 3.505-7.114 4.905-10.4-.965.937.174-1.953-2.492 3.192a78.64 78.64 0 0 1 4.045-8.152c-.577 1.344-1.658 3.66-1.434 3.574 1.424-1.95 2.64-4.455 3.48-5.754l1.558-3.32c-.194.304-.378.56-.534.73l1.446-3.827c-2.2 4.958-1.296 2.156-1.5 1.977.408.364 1.606-3.1 2.413-4.773l-2.284 3.37c.612-1.872 3.407-5.993 2.46-5.325-3.985 7.575-5.355 10.567-8.63 17.58l1.778-2.625c-3.6 7.964-3.05 4.5-7.365 13.293-1.448 3.826-6.495 13.222-5.875 13.753.328-1.208-3.33 5.158-4.495 8.327-.993 3.647-5.87 13.752-4.07 10.85 1.35-2.715 2.8-6.55 4.3-8.527l-2.467 5.34 2.06-3.286c-1 1.725-.58 1.722.347 1.156zm52.788-51.998l.1.208-.1-.228.018.02zm-77.4 256.685c1.414-.946 5.128-2.866 4.223-2.828.288.33-6.583 3.534-4.223 2.828zm4.62-1.958c.213-.228-.044-.276 1.6-1.162l-4.522 2.5 2.912-1.337zm5.994.138c2.2-1.52 3.62-2.466 7.336-4.386 1.874.188-5.924 3.442-7.15 5.183 6.83-3.48 8.5-5.38 14.03-8.4-2.968 1.07-14.38 6.787-14.214 7.594zm-2.4 2.747l3.664-2.2-.4.142-3.667 2.192zm-29.554-25.323c.385-.323.52-2.995.682-4.413-.216 1.138-.574 2.72-.682 4.413zm178.31 19.518l1.685 9.272.186.9.676 3.693-1.6-.67 1.725.854-.67-3.324-.193-.938-.103-.486-.262-1.412-1.452-7.888z"/><path d="M147.908 270.402c6.465 5.875 9.633 8.18 16.103 14.288-7.92-8.634-11.777-10.052-18.34-17.388l2.238 3.1zm4.014.294c.6 1.448-5.324-4.188-4.73-2.982 4.317 4 2.37 1.495 6.156 5.26l-1.427-2.278zm17.658 33.64c.022-.002-.105-.394-.238-.762-.053-.188-.176-.356-.23-.5l-.102-.216.2.575.14.602a2.02 2.02 0 0 1 .218.29zm-46.53-61.023l.788.574-3-3.194zm1.577 1.148l-.8-.573.8.573zm43.303 58.38l.093.272.113.62c-.012.23.05.452.022.624l-.02.28.052.14c.024.085.03.2.057.317.02.13.058.2.064.36l-.008.308.037-.25c.03-.187.007-.223.02-.38.04-.267 0-.62-.028-.968a5.93 5.93 0 0 1-.094-.506 4.47 4.47 0 0 1-.141-.425c-.076-.247-.18-.392-.17-.396zm-20.667-25.312l2.657 2.316c-.526-.46-3.798-4-2.657-2.316zm-39.936-49.905l-1.26-.9.003.087 1.27.9zm19.03 31.883c1.413 2.033-5.117-4.8-1.825-1.02 3.237 3.054 2.116 1.617 1.825 1.02zm-33.76-38.53l1.738-.322-1.738.322zm0 0l-1.073.142 3.006 2.972c-1.105-1.314-1.793-1.962-2.867-2.927l.934-.187zm22.086-3.32l-1.678.2c1.676-.478.87-.326-.63.08-1.77.273-1.65.406-1.846.538l-1.064.34 1.43-.38c2.747-.395 4.42-.662 3.787-.788zm79.686-3.57c-6.206.725-7.816.874-7.533.463-5.884.738-4.883 1.228-8.4 1.886l15.933-2.35zm-15.932 2.35l-2.313.366 2.313-.366zm-92.77 4.68l-3.464-3.026 1.382-.512-1.944.33 4.026 3.2zm119.44-8.84l-1.62.527-1.852.376-.232.04-.14.018-.262.03-.5.052-.836.05c-.07.103.2.118.654.085l.76-.08.212-.028.107-.015.185-.033.757-.15c1.012-.184 1.936-.517 2.493-.735s.75-.307.273-.14zm-26.403-2.96c-.66-.13-4.595.577-6.217.726 2.316-.3 4.294.103 6.217-.726zm39.132-15.662c-.534 1.028-1.542 2.516-1.472 1.7-.584 1.588-1.014 3.915 1.472-1.7zM190 207.74l-.9.005-4.196.847zm-15.862-3.145c-4.694 1.122 7.697-.057-.443 1.5 10.634-1.084-.9-.493 6.907-1.556-4.586.52-6.902.298-6.464.057z"/><path d="M180.612 204.54l2.167-.277-2.167.277zm43.126-39.445l-.583 1.514.583-1.514zm-21.186 34.957l-.424.473-.5.438c-.208.12-.4.303-.645.425-.24.1-.464.28-.7.342l-.346.128-.162.065-.246.062-1.1.263 1.766-.437c.235-.048.46-.16.694-.26.245-.076.462-.235.697-.358.93-.526 1.733-1.38 2.185-2.3.166-.302.6-1.265.874-1.922l.763-1.835c.403-1.033.567-1.638.338-1.54l-1.383 2.7-.662 1.373-.16.34-.08.168-.05.087-.17.332c-.442.88-1.07 1.52-1.444 1.907-.006-.01.2-.082.4-.2l.37-.25zm46.774-67.152l-1.146 2.906 1.8-3.452c-.58.956-.12-1.062-.643.546z"/><path d="M250.313 131.677l-.345.667c.088-.14.2-.352.345-.667zM218 177.454l-2.715 5.7c.5-.735 3.17-5.885 2.715-5.7zm37.215-58.634l-.424 1.1.495-1.113zm1.385 2.145l-.038.063c-.057-.046.063.268.054.247l2.095 3.716-.3-.86-1.762-3.125c-.04-.032-.06-.04-.06-.04zm-11.84-7.42l-.907 1.843-.467 1.063-.654 1.762c-.306.966-.347 1.45-.1 1.068l3.646-7.446c-.793 1.03-1.136 1.732-1.615 2.82l-.705 1.624-1.024 2.076 1.003-2.803c.03-.092.1-.285.184-.468l.63-1.538zM385.382 223.15c-1.542.12-8.823-1.137-9.16-1.514 1.003.003 4.985.446 2.526-.12l-5.904-.01c-7.618-1.636 6.006-.242 9.848.016-7.82-1.246-10.224-1.038-18.56-2.252 2.448.432 3.973.865 5.245 1.232.198.626-7.532-.762-13.092-1.522 3.498.768 1.422.685-1.187.54a7.39 7.39 0 0 0-1.004-.053l-.887-.044.666.096c-.057.06.08.16.544.337 4.685.507 8.177 1.514 11.176 1.957-2.826-1.382 10.247 1.265 14.062 1.52l4.368.54 1.63.234c.313.152-.17.216-2.682.043 2.1.114 9.004 1.184 8.4.786l10.966 1.58c.016.042.016.1-.023.156.1-.047.163-.088.206-.13l.886.123-10.757 10.524-21.51 21.01c2.507-2.338 4.782-4.25 7.388-6.64-3.353 4.16 4.23-3.96 3.536-2.443-1.555 1.82-4.1 4.207-5.7 5.552-.342.76 1.968-1.115 1.977-.616 6.54-5.84 6.483-7.82 12.77-13.64.012.5-1.66 2.575 2.32-1.373l-.966 1.05c6.144-6.56 5.585-4.3 8.933-8.952l.262.48c.33-.4.707-.82 1.12-1.276l.646-.705.33-.354.113-.142a27.3 27.3 0 0 1 .97-1.122l1.803-1.917.125.02c.254-.36.43-.618.442-.696-1.508-.067-1.82-.12-2.366-.216-.265-.047-.57-.103-1.05-.167l-2.657-.305.962.042.75-.104c.58-.07 1.292-.123 1.292-.123a4.39 4.39 0 0 0-1.896-.17c-.025.028-.48-.004-.77-.015l-.977-.056a23.58 23.58 0 0 1-2.245-.265c.262-.064-.482-.563 2.787-.184l-17.022-1.525c-4.087-.193.762.502 1.357.815z"/><path d="M364.13 219.27l-3.105-.47 3.105.47zm3.52 42.34l3.5-3.4-3.5 3.4zm-27.9-44.718c2.9.695-2.247.06-2.787.185l10.5 1.515c-.018-.208 1.053-.282.868-.497l-8.57-1.203zm10.684 2.52c.375-.088 1.504-.052 2.764.01l-5.745-.83c.014.156.637.387 2.98.82zm.448-10.9l1.86.252 2.83.254zm28.908 5.104c-2.174-.627-6.414-1.007-7.833-1.134l7.833 1.134zm-5.517-4.126l4.7.506-.427-.123zm-31.013 78.77l-1.63 1.636 1.63-1.636z"/><path d="M371.938 259.625c-8.48 7.44 4.94-5.505 1.88-3.577l-4.215 4.46.23-.5-5.308 5.267c1.342-.82 2.182-1.6 2.198-1.116-7.247 6.865-2.556 1.887-8.12 6.668l-7.942 7.834.57-.708c-.668.66-.933.983-1.122 1.25l-13.382 13.203c-.075.068-.288.3-.446.47l-.5.55c-.336.366-.652.745-.93 1.155-.284.404-.572.806-.83 1.223a42.48 42.48 0 0 0-.697 1.293c-.84 1.754-1.426 3.6-1.612 5.46-.147.92-.1 1.837-.114 2.73.02.444.077.884.125 1.317.05.422.115.928.153 1.1l1.525 8.585c1.442 6.693.01-3.84 1.392 1.042l-1.04-6.35-.6-3.68-.073-.575-.123-1.23c-.02-.814-.025-1.62.06-2.393.3-3.113 1.518-5.685 2.645-7.394.542-.88 1.105-1.522 1.5-2.03l.262-.348a2.17 2.17 0 0 0 .121-.192c.063-.114.097-.203.095-.265-.12.258-.355.768.855-.292l2.864-3.63-3.265 2.914c2.885-3.646 13.64-13.943 15.826-15.557-5.92 6.056-2.375 3.605-11.095 11.56.508-.237 2.28-1.512.45.414 9.75-9.8 18.85-18.208 28.668-28.647zm-25.08 127.14l-.084-.097c.077.24.117.316.084.097zm-.697-4.588l-1.843-6.52L346.15 386l.622.668c-.282-.894-1.154-4.48-1.203-5.92l.592 1.43zm-3.6-14.154c1.127 5.3 1.658 4.92 1.423 1.958 1.112 4.863-.18 2.697 1.014 5.973.4-.183-.884-6.2-1.2-7.568l-1.238-.363zm-6.458-39.496l.5 1.463-.572-3.715zM336.6 330l.565 3.688a2.53 2.53 0 0 0 .287-1.188l-.852-2.5zm2.053 13.363l.83 5.4-.83-5.4zm-.573-4.23l-.055.138.627 4.092-.572-4.23zm-.914-5.446c-.305.667-.612 1.44.412 6.735l.448-1.152-.86-5.583zm73.677-118.245l6.96.775-.645-.158-6.975-.777zm4.04 16.524l-2.65 2.9 2.65-2.9zm-12.656 16.28c-3.883 3.204 4.572-5.225-2.2 1.128-.856.294 1.914-3.103 5.182-6.02.005.503-2.9 3.143-.705 1.53 1.787-2.33 2.778-2.896 1.67-2.582l3.18-3.85 1.028-1.4.28-.37.158-.202.26-.3 1.164-1.324-2.313 2.335-2.125 2.08-4.93 4.742c-3.437 3.318-6.976 6.817-9.415 9.687-2.5 3.358-.075 2.253.578 2.947.602-.274 8.35-7.678 8.198-8.4zm6.316-4.83l3.143-3.16c-.503.036-1.8 1.842-3.143 3.16zm-43.222 32.11c-.223.406-3.113 3.46-2.303 2.996l4.44-4.567c-1.086 1.026-1.58 1.276-2.138 1.57z"/><path d="M369.42 271.94l-1.95 2.003 1.95-2.003zm-4.363 3.726l.275-.15c.045-.084.013-.093-.275.15zm-24.015 82.96c-.273-.045.36 2.727.678 4.117l-.678-4.117zm-25.882 26.84l-2.122-1.35c.727.52 1.1.788 2.122 1.35zM277.634 373.8c-.088.01-.272-.037-.512-.118.237.088.4.13.512.118z"/><path d="M277.122 373.692c-1.617-.604-6.142-3.365-7.98-3.957l.26.022-3.225-1.473c2.95 1.518 9.096 4.795 10.943 5.408zm102.758 40.37c.57 3 .715 5.678.384 4.57 1.423 6.066 1.022 6.27 1.878 6.94l.613 2.84.18 1.2.056 1.195c.017.64-.092.932-.167.7-.03-.1-.107-.348-.18-.73l-.13-.684-.077-.424-.096-.4.027.127.073.377.2 1.604c.037 1.33-.042 3.16-.678 4.868-.615 1.698-1.58 3.284-2.53 4.28-.425.546-.902.876-1.188 1.16l-.476.417 1.067-.868c.334-.248.644-.62 1-.997l.535-.593.475-.675c.323-.45.627-.912.843-1.386.224-.468.48-.886.596-1.287l.446-1.313c-.036.612-.297 1.8-1.012 3.155-.744 1.3-1.85 2.813-3.336 3.897-.343.306-.734.544-1.125.776l-1.16.682-1.196.504c-.387.17-.767.317-1.15.403-1.5.478-2.793.565-3.522.8l.718-.05.822-.068a5.19 5.19 0 0 0 1.055-.169c1.55-.273 3.516-1.074 5.23-2.27 1.697-1.232 3-2.898 3.798-4.245l.8-1.705.227-.68-.08.864c.64-1.813 1.146-4.648.686-7.28l-.717-4.766c.15.282.276.064.665 2.228-2.497-14.835-1.73-3.814-4.04-16.084.145.77.3 1.728.468 3.057z"/><path d="M379.183 401.218l-1.637-5.044-1.295-8.7c-.276-.054-1.57-6.34-1.063-2.02l.75 3.8c-.726-.872-2.26-11.5-2.387-8.844 1.325 6.837 1.383 7.9 2.562 12.057 1.027 6.3 1.685 10.903 1.983 13.876.405 1.853.794 2.057 1.27 4.417l-.298-1.607.797-.4c-.517-1.948-.754-3.833-1.147-6.025l2.725 9.988c.226-3.4-1.95-13.3-2.306-17.354.14 5.065-1.028-3.88.046 5.856zm.182 9.542l.045.25-.045-.25zM68.722 207.337c-1.567.592-1.784 1.172-1.9 1.366.008.013.2-.2.634-.435l.78-.414c.328-.095.67-.284 1.083-.37.654-.187 2.218-.38 3.593-.587l16.687-2.436c-.797-.1-7.868.637-3.2-.178-2.13.06-8.483 1.196-9.365 1.63l1.72-.595c-5.562 1.25-9.527.958-5.897.17l-.474.073-2.396.614c-1.22.344-2.695 1.107-3.758 2.257-1.086 1.127-1.692 2.543-1.873 3.606-.12.524-.1.98-.156 1.276l.03.482c.1-1.004.37-1.66.534-2.196.055-.284.204-.484.274-.7.088-.218.145-.443.27-.633l.355-.654.582-.718c.242-.257.567-.506.95-.805.418-.24.895-.545 1.527-.742zm269.96 217.41c-2.865-1.418-3.25-1.53-2.97-1.286l2.97 1.286zM64.814 216.235s.354.75.835 1.374c.292.28.515.6.753.762l.375.296c-.92-.773-1.584-1.698-1.963-2.432zm21.303-18.672c.006-.03.055-.06-.08-.08l-2.152.585.056-.008 2.175-.497zm58.177 94.664l1.185 1.104-1.185-1.104zm7.524-107.257l-10.78 2.08c1.412-.447-3.813.385-1.567-.225l-3.6.784 2.212-.337c-5.623 1.523-2.118 1.286-11.53 3.192 5.95-.446 8.48-1.197 11.554-1.965l2.827-.5 8.884-2.28 2.012-.74z"/><path d="M203.806 413.204l-.08.104c.1-.07.098-.094.08-.104zm-.4.526l.32-.422c-.47.373-2.418 1.52-.32.422zM64.15 215.1c.112.095.362.518.664 1.133-.025.007-.233-.563-.4-1.174l-.16-.863-.015-.4c-.082.36-.07.84-.08 1.305zm.755-6.447l.243-.238c.164-.14.35-.398.657-.6.583-.455 1.408-1.036 2.353-1.36.455-.2.943-.312 1.4-.412.42-.12.995-.174 1.4-.25l1.426-.223 3.318-.85-5.695 1.026c-1.857.3-3.698 1.3-5.102 2.916zm69.225 73.094c13.78 13.282-3.94-2.692 2.217 3.588 3.873 3.64 5.488 4.67 7.946 6.893-11.103-10.356 2.372.515-8.736-10.023 2.053 1.014 8.444 7.155 12.03 10.918 3.735 4.592-4.027-3.23-5.447-3.68 4.477 4.208 3.788 3.364 5.92 4.9 1.536 1.547 3.137 3.075 4.735 4.568l7.242 6.817-1.045 6.58-.368 2.24-.3 1.634c-.395 2.12-.83 3.992-1.353 5.505-1.032 6.907-.633 6.5-.958 10.527.584.9 2.133-10.17 3.136-12.623-.15.518-.45 1.527-.5 1.2l1.17-5.924c-.6 2.803-.755 2.576-.7 1.27.032-.652.117-1.575.222-2.524l.743-4.988.52-3.097-4.307-4.225-1.324-1.36c-.16-.17-.17-.202-.187-.24-.01-.032.01-.037.066-.01l4.7 4.373-2.26-2.264-2.348-2.255-2.676-2.4c-1.815-1.612-3.638-3.26-5.142-5.002-.057-.284 1.24.87 1.498.982-4.027-3.23-7.554-6.7-13.246-11.765l3.662 2.56c-4.915-3.674-14.62-13.45-21.16-20.417.672.827 1.98 2.22 1.06 1.52-4.136-3.8-6.822-7.102-4.697-5.56-4.34-3.394-14.592-14.93-20.482-19.582l-27.02-21.238c.088.077.106.1.25.228l.376.322.762.664 1.55 1.404c1.8 2.632 3.05 3.75-1.284.363 4.078 3.506 2.965 1.7 8.758 7.32-2.488-1.98-3.57-2.015 1.9 3.43 14.272 13.025 24.697 20.667 38.256 32.596.135.815 10.372 10.602 15.22 15.487-2.248-1.457-6-4.916-9.88-8.54l9.476 9.335 1.962.47zm-33.26-30.124l1.007 1.1c-.167-.22-.465-.554-1.007-1.1z"/><path d="M121.55 270.802c-.06-.033-.054-.007-.085-.01l1.23 1.147-1.145-1.138zm-57.377-52.13c-.305-.36-.487-.733-.725-1.08l-.536-1.2c.2.564.444 1.272.825 1.878.16.3.326.5.422.56s.103.037.014-.147zm-.2-3.073l.272.397c-.022-.35-.1-.587-.096-.896-.096-.085-.236.026-.176.5zM147.2 349.078l-.205 1.826c.18-1.1.217-1.567.205-1.826z"/><path d="M148.817 297.222c-4.8-4.6-1.08-.032-7.825-6.603l1.948 1.96c-5.056-4.492-13.458-12.883-19.225-18.468.852.424-3.24-3.65-2.25-3.32-4.003-3.754-7.964-7.475-10.314-9.114-2.328-2.482-6.313-5.793-9.272-8.948 1.116 1.47-5.05-3.633 2.714 3.47-.634-.566-.296-.15-.924-.708 4.586 5.002 6.983 6.436 11.17 10.504 2.3 2.628-4.4-3.673-2.108-1.297 5.395 4.908 16.15 16.197 16.514 15.134 3.848 3.65 4.216 4.322 5.22 5.56 2.756 2.07 6.916 6.12 10.938 10.118l5.737 5.707 2.982 2.888 2.84 2.633c-.23 1.873-.263 2.988.003 2.946l.507-3.112-5.247-5.017a128.65 128.65 0 0 0-4.087-3.67l.683-.666zm-77.15-70.947l.918.914-.918-.914zm51.534-23.453l-2.625 1.294-35.07 5.094c-1.065.03.587-.3 1.425-.452l-16.342 2.44a3.27 3.27 0 0 0-2.18 1.498c-.4.73-.462 1.493-.3 2.023.003.24.075.566.143.926.143.327.254.708.462.974.047.07.087.14.12.212-.007.018.077.107.15.188l.2.226a10.81 10.81 0 0 1 .558.675c.226.3.13.3-.468-.18l3.646 3.376c.103.553-2.845-2.643-3.102-2.523.97.976 1.3 1.395 1.607 1.542-.926-.708-.688-.092-1.184-.242-.248-.075-.678-.342-1.53-1.062l-.72-.63-.208-.187c-.058-.055-.07-.076-.1-.117l-.22-.227c-.33-.307-.604-.785-.882-1.387.04-.56.116-.584.244-.405.1.193.286.603.547 1 .145.185.253.402.438.535l.22.217.05.05.1.094.212.175c.534.428.805.53.5-.05l-.45-.435a.87.87 0 0 1-.127-.133l-.07-.08c-.1-.098-.178-.17-.26-.227-.145-.127-.224-.22-.314-.255-.17-.08-.258-.017-.343-.044-.5-.9-.412-1.438-.402-1.647.02-.223.16-.193.243-.154-.13-.335-.144-1.133.173-1.88.285-.76.83-1.375 1.096-1.865.208-.12.344-.3.514-.36s.3-.148.412-.214a4.63 4.63 0 0 1 .509-.121c.196-.025.154.082.085.2s-.164.246-.114.294.23.004.75-.1c.013 0-.013-.018.076-.054l.36-.15 2.685-1.114 9.556-1.227c13.756-2.3-2.185-1.163 13.52-3.93-2 .74 4.424.555 11.8-.337-4.388.67-12.427 2.396-18.134 2.97 8.1-.504-11 1.678-6.733 1.827 3.9-.93 10.48-1.935 15.644-2.5l-1.673.322c5.476-.705 9.484-2.184 17.07-2.944 3.743-.57 3.075-.232 2.445.06 3.15-.583 5.96-1.16 5.997-.975zm-8.136 1.36l-5.023.646c1.2-.035 3.076-.3 5.023-.646zM367.1 331.425l.2 1.527c-.017-.338-.098-.915-.2-1.527zM239.166 82.233l1.323-2.618-1.323 2.618zm47.274 21.237l2.074 3.755-2.074-3.755zm83.08 200.007l.106-.096.453-.504-.56.6zm-6.905-115.517l2.335.528c-.106-.1-.98-.288-2.335-.528zm-76.558-85.18l.102.24.28.45-.383-.7zm-61.943 4.364l-.755 1.72.755-1.72zm3.984-2.644l-.732 1.674.732-1.674zm-48.354 78.136l-3.9.7 3.9-.7zm43.23-69l-.168.6c.218-.5.288-.756.168-.6zm145.877 242.96l-.043-.235-.114-.082.157.317zm2.84 9.256l.656 3.407-.656-3.407zM419.2 197.56c1.017.27 3.424.77 2.27.743 2.005.114 1.935-.33-2.27-.743zm-58.82 140.948l.655 2.117-.655-2.117zm.655 2.117l.55 2.078-.55-2.078zm30.83-139.93c-.25-.094-.64-.2-1.18-.293.142.136.57.224 1.18.293zm-19.166 171.34c.305.58 3.287 15.375 1.244 2.85.703.376 1.663 7.975 2.4 11.283-.27-2.447.604 1.136.7.362-.36-1.64-.874-3.576-1.3-6.317.067-1.306.97 2.8 1.42 6.067-.357-4.047 1.36 4.98.642-.712-2.3-12.036-3.978-20.53-6.34-28.864 1.33 6.856 2.835 14.523 3.554 20.2l-.943-2.28c-.622-6.46-1.65-10.338-2.676-16.62l2.133 14.144c.686 6.68-.174 2.28-1.164-2.908.212 1.28.378 2.444.34 2.785zm-6.334-8.7l.025.238.156.585-.18-.823zM182.05 193.426l-1.187.38c1.002-.24 1.305-.35 1.187-.38zM367.5 354.492v.01-.01zm-162.024-182.93c-.007.045-.01.1-.03.167.033-.106.018-.113.03-.167z"/><path d="M198.584 159.044c-.048.04-.076.044-.158.152-.262.6-.1.326.158-.152zm6.866 12.474c.015.007.04-.003.036.043-.006-.028.002-.083-.036-.043zm66.545-74.524l-.37-1.165c-.172-.235-.097.048.37 1.165zm-13.055-23.9l-.37-.196.37.196zm153.734 121.052l-3.428-.468 3.428.468zm-207.22-22.406c-.084.3-.224.718-.476 1.395l.476-1.395zm88.8-35.842l-.453-.783.213.493.24.3z"/><path d="M300.67 149.794c-.286-.44-.45-.628-.63-.866 2.62 4.8 6.844 13.91 7.89 14.72-.834-1.657-4.783-10.427-3.754-9.108-1.815-3.352-3.943-8.58-4.937-10.377 2.483 5.748-.14.822-2.183-2.877-1.548-3.517.737.442-.63-2.57l-3.99-7.938 3.355 6.973-1.54-1.86.396.684c6.028 11.624-.237 1.356 6.02 13.22z"/><path d="M300.04 148.928l-1.05-1.82c.555 1.104.818 1.508 1.05 1.82zm30.142 41.245l2.307.246-2.307-.246zM82.214 203.858c.25.13 7.848-.633 7.65-1.038l-6.784.85-.867.188zm358.566 25.574l1.836-1.775.3-.394c-.417.317-1.566 1.547-2.146 2.17zM305.4 156.565l-1.224-2.025 1.224 2.025zm134.325 72.473l-2.408 1.7c-1.588 1.542-2.545 2.8-4.104 4.42l6.512-6.108zm-6.637 6.242l.125-.134-.125.134z"/><path d="M77.697 204.33l-1.994.38 1.028-.265-5.2.626-2.088.403.702-.242c-.57.063-1.044.186-1.57.27-.9.422-2.105 1-3.165 2.017-1.062 1.004-1.963 2.372-2.422 3.84a8.83 8.83 0 0 0-.287 4.212l.207.87c.078.27.198.5.282.74.153.466.404.806.56 1.077.397.727.965 1.395 1.585 2.005l2.307 2.142 4.037 3.868c-2.016-1.977-4.762-4.53-4.127-3.57 3.928 4.185 5.4 6.656 12.937 13.1l-4.163-4.044 10.008 8.427c3 3.473-4.995-4.206-6.53-5.225 7.594 6.748 12.765 13.536 16.708 16.23.134.813.362 2.172 5.164 6.786-3.05-3.75 3.108 2.53.704-.646 1.843 1.405 5.197 5.3 5.726 5.316l-.587-.3c7.603 8.5 11.114 10.22 14.875 13.33 9.888 9.36 14.145 13.952 22.154 21.645.084.538 1.62 3.293 4.835 6.378.68.406 2.595 2.072 4.725 3.945l-.33 2.836-.155 1.4-.12 1.214c-.122 1.4-.17 2.485-.057 2.8l.562-2.997.2-1.324.157-1.132c.17-1.36.2-2.164.227-2.956-.915-.7-1.815-1.385-3.4-2.847l-.474-.607-.298-.42a8.57 8.57 0 0 1-.36-.562c-.156-.276-.175-.387-.23-.523-.113-.272-.376-.65-2.193-2.67.608.66 1.57 1.616 2.74 2.757l4.84 4.666-.908 5.5-.723 4.202c-.48 2.664-.942 4.96-1.344 6.326l.2-1.68c-1.627 7.48-3.256 8.685-4.574 21.388l-.686 6.05c-.006-.3-.066-.343-.1-.506-1.74 9.8-1.917 7.013-3.273 17.928.105-.843-.046-.328.062-1.185-1.373 6.12-1.8 12.452-2.48 17.142-.954 2.77-.343-.755-.377-2.575-2.043 10.828-3.253 22.685-3.842 29.525l-1.474 6.953c.52-4.185.898-9.342.4-8.124-.567 3.866-.22 3.158-1.242 8.588-.14-.98-.025-3.312.04-5.936-2.43 11.174.625 2.698-1.64 10.42-.613 3.536-.53 5.665-.236 6.114l-.246.988c-.133.588-.375 1.398-.508 2.162-.055.383-.164.77-.175 1.136l-.035 1.012c-.01.3.045.543.054.717l.03.273c.27.282.788 2.43 2.6 4.306 1.698 1.985 4.815 3.17 7.245 3 .147-.05-.027-.106-.388-.16-.363-.023-.905-.15-1.512-.283a14.08 14.08 0 0 1-3.356-1.399c.128-.033.483.1 1 .328a17.05 17.05 0 0 1 .907.301c.33.122.723.16 1.1.267.392.1.826.087 1.25.15.43.018.873-.02 1.3-.02.43-.086.864-.114 1.27-.218.396-.134.8-.2 1.145-.354.177.047.57-.008 1.215-.244.673-.28 1.542-.7 2.53-1.182 1.975-.98 4.422-2.282 6.718-3.497 4.592-2.43 8.578-4.516 6.962-3.017l43.48-23.8c3.24-1.4 9.595-4.725 6.003-2.318 11.522-6.054 16.998-10.063 28.557-15.84 1.003-.4-5.165 2.726-4.607 2.8 3.042-1.783 5.946-3.26 9.136-4.836L256 382.05l2.804 1.466 2.926 1.487c-.98-.504-1.625-.782-2.138-.98-.487-.182-.737-.228-.898-.255-.115-.152 1.305.5 2.885 1.236l5.2 2.453c1.647.96-2.3-1.077-1.4-.47 22.18 12.196 39.864 19.996 62.124 31.748-6.357-3.356-9.063-4.05-9.254-3.85l6.228 3.287c2.553.978 7.232 3.438 11.258 5.283.424.36 2.268 1.476.254.6 6.005 3.526 10.95 5.793 16.26 8.207l8.42 3.908 4.75 2.366c.4.197.873.47 1.23.62.365.155.72.35 1.12.45.77.293 1.62.376 2.493.445l-.735.01c-.237.022-.518-.027-.847-.058-.333-.014-.693-.105-1.093-.2-.4-.062-.807-.273-1.264-.415l-1.6-.708-12.905-5.78 4.3 2.778-8.3-3.698c4.63 2.84 9.188 4.3 9.538 5.04-1.077-.4-3.5-1.734-3.7-1.54 4.518 2.592 5.05 2.46 8.557 4.195-9.588-3.915-27.47-13.334-37.2-18.18-1.552-.727 1.408.47 1.724.52-3.943-2.036-6.157-3.55-11.183-5.997-3.267-1.242 2.2 1.506 4.615 2.826-.506.147-1.722-.517-4.462-1.896-.362-.742-14.82-7.986-18.04-10.354-14.574-7.5 1.73 2.338-12.328-5.293l-3.97-2.718-12.952-6.215-6.885-3.447-3.257-1.674-2.25-1.184-1.28.653 1.28-.687.045.017c.45.1.317-.078-.045-.36-.352.093-.923.317-1.288.44l-.982.478-1.102.56-2.513 1.332-4.676 2.573c-2.958 1.633-5.587 3.05-7.847 3.922-7.74 4.74-20.9 12.155-29.923 17.245-2.815.648 11.666-6.84 15.265-9.25l-8.342 4.4c5.153-2.72 7.06-4.038 9.956-6.035-7.375 3.724-9.48 5.56-16.325 9.368.446-.46-.537-.084-3.737 1.593l-.68.9c-.078-.005-.45.148-1.45.64l-12.195 6.75c2.715-1.2 3.04-.88 6.228-2.55-1.27.346 1.406-1.125 4.598-2.795-2.646 1.752 3.234-1.396 3.3-1.127l-18.35 9.858-1.57.317c-6.145 3.102-12.46 6.707-16.654 8.763l1.2-.896c-7.373 3.72-14.435 7.76-21.13 10.784-1.932 1.174-4.495 1.968-7.096 1.832-2.607-.097-5.26-1.04-7.393-2.65a13.69 13.69 0 0 1-4.616-6.211c-.248-.583-.394-1.187-.527-1.784-.065-.3-.145-.595-.2-.9l-.093-.888-.076-.873c-.01-.288.01-.572.016-.854l.037-.834.022-.4.023-.285c-.03-3.27 4.373-21.178 4.97-29.5.156-.54-.533 5.695-.796 8.525 1.022-5.43 1.053-9.88 1.95-11.483-2.298 12.184.593-.573-.18 4.96.97-5.722 1.896-11.77 2.162-14.615-1.583 9.26-.27-3.43-1.614 5.987.738-7.35 2.236-17.295 3.917-25.915.245.13.55-.916 1.2-4.124l.07-2.667c.763-4.037-.896 7.907.636-.222.793-8.5 4.7-25.196 4.135-29.073 1.568-6.312-1.6 12.247.62 2.7-.53 5.68-2.35 13.326-2.07 15.276.772-5.523.848-1.92 1.46-5.462l.683-6.2-.255 1.352c.474-4.096 1.238-9.105 2.122-14.476l2.56-15-5.114-4.952c-8.505-7.44-14.682-12.23-24.328-21.727 3.1 2.533-7.8-8.093-1.25-2.614-4.265-4.598-8.953-8.646-9.225-8.543 3.882 3.912 1.328 1.414 4.56 4.746-2.467-1.957-7.628-7-9.607-9.23.968.977.637.568.924.708-4.562-4.747-2.48-1.974-5.98-5.196-.767-1.374-7.434-7.414-10.38-10.6l-4.955-3.938c2.77 2.114-4.213-4.32-4.654-5.3-3.44-2.94-6.514-5.2-11.358-10.1 2.187 1.826-4.27-4.605-4.06-4.994l-1.5-1.548-.743-.74c-.262-.267-.445-.417-.8-.826-1.37-1.37-2.33-2.998-3.075-4.653-1.35-3.368-1.522-7.08-.348-10.4l.458-1.234.6-1.17c.387-.798.965-1.476 1.5-2.197 1.176-1.326 2.536-2.566 4.2-3.404.792-.483 1.7-.764 2.576-1.095.454-.13.92-.226 1.4-.328l.707-.14.498-.07c1.3-.17 2.623-.322 4.013-.447-.33.148-2.516.75.726.387 2.523-.487 6.98-1.084 9.7-1.525l-.084.024.14-.032c1.328-.216 2.157-.4 2.175-.498 4.592-1.1 6.93-1.86 16.036-3.54-.742-.386-8.445.925-11.77 1.567l-2.824.897c-2.87-.327-8.24 1.327-10.38 1.387 5.37-1.653 21.218-3.742 30.632-5.646-5.884.168-18.486 1.892-29.457 3.57l4.88-.414-5.745.844 5.636-.294-7.733 1.107-3.67.56-1.827.272-.917.133-.24.035-.38.073-.76.156c1.38-.307 1.792-.308 2.45-.398l1.65-.167c.978-.08 1.708-.106 2.156-.094.896.025.663.202-.975.386-1.622.115-2.848.252-3.852.405l-.186.03-.276.055-.56.122a24.72 24.72 0 0 0-1.034.26c-.658.17-1.224.457-1.78.688s-1.06.53-1.567.85-1.03.627-1.53 1.054c-.505.42-1.085.82-1.622 1.393-.56.55-1.175 1.153-1.76 1.944.65-.88 1.522-1.67 2.33-2.393.875-.642 1.674-1.25 2.362-1.558 1.347-.673 1.804-.822.282.136a14.97 14.97 0 0 0-6.747 6.733c-1.256 2.487-1.656 4.95-1.622 7.312.063 2.365.563 4.715 1.78 7.063.613 1.166 1.372 2.352 2.386 3.482l2.2 2.466c-.22-1.352 8 7.695 9.43 8.147l-2.907-2.928 6.6 5.756c5.32 6.1-5.6-4.506 2.88 4.405 8.06 7.972 8.448 7.156 14.875 13.332-2.44-1.705-7.8-6.343-12.93-11.373l2.957 3.207c-1.845-1.408-8.928-8.395-12.463-11.88 6.26 5.33-2.63-2.8-5-5.717-.817-.145 3.006 3.48-1.708-.594 4.18 4.06 4.816 4.628 10 9.927-5.663-5.667-8.524-7.892-11.188-9.955l-2-1.568-1.05-.857-.55-.464c-.063-.043-.28-.267-.422-.4l-.48-.495c-.32-.34-.65-.7-.968-1.07a34.17 34.17 0 0 1-.889-1.25c-.627-.854-1.084-1.887-1.597-2.977-.874-2.235-1.472-4.98-1.2-8.148-.118 2.927.297 4.1.377 4.223.12.125-.032-.773.035-2.076-.005-1.296.225-2.983.6-4.366.202-.7.4-1.318.582-1.802.213-.475.385-.817.474-.962.238-.6.5-1.3.912-2 .387-.702.812-1.454 1.38-2.156a33.63 33.63 0 0 1 .853-1.084 42.99 42.99 0 0 1 .998-1.01c.662-.696 1.46-1.258 2.24-1.833.8-.556 1.657-.994 2.48-1.427.863-.35 1.704-.7 2.524-.94l1.204-.293.572-.126.446-.1 1.088-.202-1.182-.168c-.04-.005-.068-.012-.117-.015l-.2.004-.374.01-.668.03-.658.04c.45-.114.892-.217 1.327-.3l.595-.12.352-.057 1.347-.196c.868-.116 1.68-.205 2.456-.276 1.554-.143 2.97-.218 4.42-.3 2.905-.187 5.958-.445 10.56-1.465 1.15-.575-8.205 1.054-6.542.734 12.67-2.27 17.414-1.862 28.792-3.003.6-.293.417-.696 4.32-1.624-1.184.58 1.77.36-2.634 1.3 3.804-.38 8.24-1.325 11.55-1.965-7.903.9 3.136-1.043 4.55-1.493 4.085-.525-1.185.58-3.675 1.06 3.287-.37 7.26-.344 9.032-1.213.2.403-8.986 2.438-15.036 3.43l4.1-.526c-2.786.625-3.322.64-7.4 1.165 4.02-.25 3.68.167 2.8.6-.53.015.275-.142-.23-.13-3.284.368-5.775.847-4.985.96-2.857.993 4.585-.305 6.84-.345l4.972-.838 16.718-4.286c7.225-1.266 10.55-1.305 16.04-1.823l1.425-.704c6.32-.867 12.3-1.58 8.343-.375-.25-.13-1.08.03-2.453.207-.17.092-.48.185-.874.28-.128.048-.196.087-.3.13l11.33-1.93c-11.377 2.374-.445.966-2.24 2.107l11.554-1.966c-7.068.75-.2-.403 2.288-.882.096.05.317.063.64.05l.554-.04.377-.03c.464-.044 1.068-.147 1.693-.266l.78-1.794 1.597-3.3-.044.316c1.837-3.337 4.746-9.34 6.727-13.652-.243.12 1.733-5.7 2.594-8.526-3.768 7.22-1.805 2.8-2.366 3.25.397-.744 1.073-2.1 1.095-2.285.4-1.107-.867 1.336-1.114 1.47-3.625 7.86-7.508 15.874-8.457 19.34 1.454-2.246 1.74-4.2 3.24-6.766-.666 1.814-1.54 3.804-2.592 6.028l-1.705 3.52-.612 1.22-.652.1s-.22-.072-.405-.15l-.245-.107-.043-.02-.118-.003-.103-.003-7.128 1.26c1.48-.324 1.753-.527 2.595-.795.42-.134.984-.285 1.9-.475l1.7-.318 1.084-.185.245-.055c-.038-.043-.085-.072-.14-.088-.027-.008-.057-.014-.088-.016-.023 0-.014-.005-.065 0l-.295.037c-.817.107-1.86.277-3.015.473-2.3.4-5.07.878-7.38 1.148l-2.274.88c.862-.432-8.992.94-2.056-.485l11.317-2.095-3.217.1 6.776-1.06c.036-.006.016-.004.026-.006l.018-.007.032-.012c.037-.016.062-.025.062-.025a.71.71 0 0 1-.04.29c.1-.053.185-.083.25-.1.034-.085.072-.135.12-.173.065-.077.016.1.358-.483.484-.778.78-1.108 1.12-1.564.678-.912 1.53-2.326 4.415-8.825 1.586-4.705 3.865-9.48 8.273-18.05-2.954 6.317.1.848-.72 3.37 3.395-6.256 3.97-8.65 5.372-12.07 1.114-1.47 1.94-2.5-.918 3.175.302 1.037 3.586-7.55 4.516-7.737 9.294-18.883 5.3-16.197 17.02-37.843l-.137.96 8.685-18 4.56-9.215.262-.535.13-.27.07-.142.126-.23c.338-.615.697-1.23 1.072-1.836.415-.58.864-1.15 1.324-1.714 1.915-2.194 4.454-4.005 7.458-5.068l.824-.248c.535-.115 1.307-.26 2.23-.397 1.85-.176 4.368-.177 6.728.562 2.358.68 4.53 1.865 5.912 3.035.728.542 1.254 1.078 1.616 1.46l.568.598a33.72 33.72 0 0 0-1.42-1.256 31.88 31.88 0 0 0-1.902-1.256c-.704-.364-1.44-.705-2.156-1-.74-.243-1.46-.45-2.107-.613-1.33-.212-2.357-.32-2.743-.212-.192.038-.22.1-.047.156.176.06.552.144 1.16.33-4.214-1.254-9.26-.292-13.04 2.6a17 17 0 0 0-4.628 5.472l-2.183 3.937c-.088.636 1.12-1.48 1.7-2.373-1.6 3.228-2.714 4.694-4.7 9.02.246-.135 2.716-4.704 1.07-1.154l-3.294 5.592c-3.628 7.867-.858 4.333-5.558 13.357.454-1.885 1.608-5.623 3.26-9.2-2.14 4.127 2.5-5.67.403-1.98-2.395 6.285-4.276 8.962-7.86 17.122.383-.977.395-1.28 1.33-3.26l-5.958 11.466c1.747-2.703-4.358 9.75-3.332 8.915 6.298-12.245 4.2-8.764 11.433-22.695-1.854 4.038-3.886 9.422-4.6 12.057-.08.113-.196.308-.418.737-.572 2.4.64.264 1.475.728 2.563-6.722 5.182-10.77 8.57-18.517.235-1.655-2.766 4.1-4.503 7.925l2.983-6.826-.433 1.42 8.517-16.86c-1.56 3.222-1.826 4.446-2.448 6.222 1.097-2.177 2.3-4.28 3.56-6.516-.686.264-.85-.197.2-2.324l1.96-3.84.9-1.755a34.58 34.58 0 0 1 .67-1.125c.223-.376.458-.734.737-1.054 2.1-2.676 4.814-4.2 7.32-4.837a12.92 12.92 0 0 1 6.716.084c.955.224 1.77.65 2.537 1 .717.455 1.4.83 1.95 1.334.497.35 1.08.717 1.472 1.112-.402-.55-.055-.4.778.237.437.3.9.815 1.437 1.413.286.3.518.655.776 1.032l.4.586.197.305.14.232 4.354 7.2c-.555.066 2.488 5.756 3.797 9.017 1.368 1.404 1.017-1.197-.427-5.24-4.133-7.124-2.54-3.882-4.96-7.016l-2.426-4.457-.224-.372c-.3-.5-.6-1.006-.955-1.47-1.383-1.92-3.33-3.315-4.868-4.1l-1.066-.517-.863-.297-.755-.246.633.145c.375.104.905.185 1.4.387l1.358.536a5.07 5.07 0 0 1 .594.303c-1.947-1.375-4.254-2.168-6.43-2.4-2.188-.274-4.208.143-5.82.6-3.226 1.083-4.76 2.646-4.697 2.132 1.868-1.746 5.18-3.222 8.642-3.3 3.474-.143 6.824 1.16 9.056 2.523 0 0-.322-.265-.837-.616-.538-.3-1.246-.766-2.007-1.1-1.522-.718-3.185-1.06-3.185-1.06 1.487.176 2.645.6 3.602.938.913.444 1.66.793 2.2 1.2a18.27 18.27 0 0 1 1.363 1.076 21.19 21.19 0 0 1 .941 1.042 9.94 9.94 0 0 1 .919 1.194c.3.48.74.98 1.12 1.714l.662 1.192.5 1.02c.363.715.813 1.562 1.375 2.58-1.034-3.303.407.74 2.5 4.15-.27-.758-.866-2.05-1.577-3.53l-2.124-4.367-.23-.423c-1.196-2.398-2.953-4.063-3.98-5.04-1.092-.915-1.44-1.3-.37-.833 1.665 1.068 3.673 3.02 5 5.794.105.194.15.298.194.398l.145.325.292.663.6 1.375 1.25 2.882c1.703 3.9 3.55 7.97 5.37 10.637l-.23-.235c4.07 8.514 6.004 11.258 7.86 14.282 1.514 3.73 4.338 8.52 6.293 12.407l-.284.02 2.816 5.457c-1.726-2.4-3.173-6.458-5.57-11.157l-.15.805c-2.168-5.7-4.757-8.955-7.223-12.996 3.418 5.966 8.47 17.43 10.042 18.452l1.435 4.026 1.06 1.742c1.066 3-.886.363-3.7-5.087-.36-1-.54-1.516-.306-1.27-1.457-2.456-2.955-4.63-5.902-10.86l1.86 3.182c-3.765-7.707-7.386-14.616-9.117-17.036l15.812 32.55c2.513 2.584 4.87 5.958 6.568 7.07 3.624 6.9 8.438 16.347 11.1 22.6l-.458-.468c1.37 3.012 2.768 5.72 3.997 7.945 1.303 3.252-1.547-1.902-.602.345l5.256 9.868c-.724-.412-4.887-8.843-6.893-12.832.408.738 1.23 2.23 1.045 1.712-2.126-4.743-7.12-13.068-7.52-15.403-1.226-2.217 2.722 4.4-1.038-3.3-2.312-5.257-3.682-6.664-4.128-7.112-.278.034 3.66 8.234 1.978 5.544 2.006 4 3.1 5.433 5.396 10.666-1.987-3.954-5.128-9.106-5.803-11.4-4.314-7.63-4.87-5.954-3.106-2.225-.086-1.053 7.494 14.102 2.87 3.6 2.73 4.4 6.9 12.843 10.164 18.75l-.226-.23 3.816 7.45c-.646-.996-1.87-3.212-2.144-3.17l5.766 10.083c-3.314-5.642 1.494 3.774 2.62 6.53.23.234.54.655.855 1.092.034.044.1.132.106.142l.057.042.108.078a1.5 1.5 0 0 0 .19.116c.112.054.192.055.226-.028.017-.04.022-.103.016-.187l-.02-.145c-.006-.026-.012-.055-.018-.085l-.01-.046-.006-.024-.038-.1c-1.898-4.5-1.454-2.453-3.448-6.422l3.355 5.358.183.5.32.465a2.06 2.06 0 0 0 .262.125c.183.075.335.1.335.1.025.056.046.107.06.15.4.127.187.392-.055.576-.1.093-.198.17-.074.22.06.025.176.043.354.05l.146.004h.08c.036.001.02-.006.184.013l1.712.174-1.3-.9c12.562 1.932 28.6 5.07 37.532 6.037-2.5.044-3.684.53-.368 1.402-3.814-.678-11.52-1.772-17.024-2.504-1.04-.278 6.987.166 12.936 1.185-2.726-1.572-15.12-1.487-15.65-2.756-7.145-1.235-10.1-1.422-12.596-1.543-1.242-.06-2.364-.105-3.828-.256l-1.17-.135-.736-.1a8.72 8.72 0 0 1-1.023-.232l-.205-.637c-.214.162-.402-.075-.604-.354-.018-.004-.185-.3-.298-.503l-.36-.596c-.234-.365-.45-.646-.632-.75a10.73 10.73 0 0 0 .346 1.104l.253.66c.036.095.117.28.123.3l.053.163c.152.444.383.968.653 1.525l7.264.928c3.402.438 6.787.896 9.583 1.405-.825-.082-2.488-.243-2.825-.2 5.968 1.023 8.46 1.267 12.672 1.682l-.518-.138c7.386.553 4.467 1.047 8.737 1.9 1.68.165 7.64 1.185 6.733.663l7.72 1.628-.3-.637c4.4.605 5.307 1.13 9.342 1.354l.26-.494-10.9-1.768c5.558.633 1.615-.275 7.7.5-6.874-.417 4.763.987 5.36 1.568l4.515.356-1.164-.028c3.47.778 4.206.414 8.292 1.077-4.788-.993-7.898-1.818-14.106-2.343a442.43 442.43 0 0 1 15.641 1.625c4.737.465 7.965 1.34 12.358 2.04-8.48-1.02 2.73 2-14.146-.825.328-.055 1.695.167 2.217.306-2.16-.994-10.154-1.434-13.862-1.712.9.52-2.962.058 3.515 1.215-2.1-.556 5.606-.058 11.753 1.157l-1.2.662 9 1.407-.85-.083c3.314 1.02 9.633 1.295 15.796 2.508 4.523.358 21.683 3.1 14.4 1.156a48.07 48.07 0 0 0 4.053.786 69.08 69.08 0 0 0 2.001.273l1.03.125 1.397.26c3.695.814 7.313 3.2 9.396 7.165 0 0-.3-.616-.82-1.525-.557-.876-1.393-1.998-2.416-2.955-.493-.496-1.075-.893-1.6-1.3-.526-.394-1.08-.67-1.535-.94-.453-.277-.867-.43-1.152-.55l-.45-.183c3.213 1.02 5 2.616 6.236 3.792.568.642 1.034 1.2 1.415 1.693l.917 1.44c.286.446.47.92.717 1.413l.368.8.32.93.353 1.102c.098.405.18.854.27 1.348.1.494.18 1.035.194 1.637s.095 1.265.01 1.98c-.346 1.154-1.27 3.454-.882 1.224a15.48 15.48 0 0 1-3.284 6.421l-.637.704-.317.34-2.986 2.88-7.435 7.22c-4.822 4.73-9.132 9.086-11.45 11.82-6.165 5.96-7.8 6.198-16.157 14.87-1.732 1.852 1.955-.823-3.914 4.565-.427.33 5.062-5.793-1.244.445-4.078 4.866-10.87 10.104-16.37 16.236-3.267 2.863-8.597 8.18-7.826 6.725 5-4.715 11.892-11.58 12.784-12.786-.467.88 3.706-3.2.243.502 7.705-6.978 4.6-4.93 11.466-11.25.318-.593-3.82 2.944-5.126 4.47-.512-.463 12.927-13.065 6.418-7.875-7.174 6.9-8.288 10.002-14.974 15.506 2.184-2.715 6.307-6.237 8.948-9.823l-5.272 4.752-3.338 3.95.148-.286c-9.4 8.3-7.802 8.596-15.586 16.667 4.983-4.2-.24 1.903 3.46-1.296-5.306 5.295-9.3 9.07-9.828 8.6 9.648-10.2.062-1.077 8.863-10.617-1.696 1.308 1.506-2.877-4.08 2.46-5.9 6.428 2.266-1.406-3.8 4.815-.4.314-.836.642-.688.357-2.608 3.044-3.426 3.16-6.6 6.815l.724-.898a42.16 42.16 0 0 0-2.196 1.98l-.813.817-.34.363-.192.226c-.495.592-.82 1.075-1.405 1.648.075.432.123.922.133 1.565.16-.58.356-.06.573.725l.542 2.46a51.09 51.09 0 0 0 .627 2.596c-.216-1.615-.34-3-.463-4.472l-.046-.553c-.005-.122.002-.184.002-.277l.01-.52.001-1.075a28.15 28.15 0 0 0 1.277-1.02l.212-.188.42-.394.88-.834 1.93-1.87c.604-1.154-.1-.792 2.8-3.872l-4.738 4.688c.983-1.052 1.694-1.892 2.582-2.87l4.73-4.318c-5.6 5.873-2.644 3.585-4.82 6.294l-2.7 2.56-.884.865-.264.278c-.28.308-.425.508-.818.872l.053.507c-.162-.07-.255.204-.283.802l-.008.238c0 .094.033.38.05.573l.146 1.397.38 3.26 1.896 14.714-.648-3.916c-1.42-6.06.235 4.298.113 4.552l1.058 4.413c-.185-.833-.52-1.972-.276-.054 1.145 6.022 1.665 5.572 2.8 11.585-.245.508-1.608-4.508-1.135-.728-.06 1.34-.1 5.588 1.56 13.553.22.547.646 2.612 1.112 5.012-.074-.332-.16-.75-.208-.896l.562 5.383c-1.327-4.44-1.313-9.217-2.647-13.68l-.6-.297c-.6-3.548-1.663-8.326-2.313-10.495.84 5.424 1.172 6.54 2.317 12.568-.186.903-1.16-3.314-1.302-3.922l.452.852c-.805-7.287-2.35-10.698-3.793-19.693-.212-1.358-.03-.538.12-.254-1.753-7.182-2.282-14.432-4.162-21.383l.67 2.257-1.748-8.236 1.94-2.18 2.57-2.824 6.06-6.588-.1-.2c-.845.65 1.724-1.843 3.158-3.124l-.005.01 8.946-9.64c-.95.748-2.126 1.745-3.4 2.956-.9 1.217-7.315 7.192-6.07 6.747-3.132 2.588-7.47 7.482-9.745 9.408 2.063-1.765 1.48-1.013.32.3-1.072 1.218-3.144 3.4-3.337 3.8-.327.23-.756.593-1.258 1.047.175 1.34.5 3.142.72 4.513.202 1.278.3 2.094.056 1.854.03.537-.006-.132-.132-1.212-.06-.514-.174-1.322-.297-2.036a22.26 22.26 0 0 0-.467-2.155c-.128-.534-.226-.9-.287-1.096.294-.366.192-.333-.155-.05.028.455.148 1.387.292 2.44l.414 3.055c.184 1.518.2 2.202-.404-.45l5.7 29.586-.7-5.148c.63 4.074 2.38 13.672 2.282 14.43l-1.927-10.386c-.552-.098 1.595 9.28 1.35 9.766l2.784 11.068-.813-4.917c.846 3.04 2.227 13.377 3.46 21.003-1.46-4.245-2-11.482-3.648-19.444-1.268-5.77-.07 3.712-1.185-1.766.08 1.456.715 5.046 1.197 6.787l.244 2.194c-1.5-4.802-3.234-15.84-5.048-23.075.18.63.35 1.18.46 1.37-.718-5.688-1.7-11.42-2.826-16.893.295 2.946.63 4.074 1 5.725-.124.234-1.084-4.948-1.6-6.884.7 5.15-.218 1.02.23 4.277-.726-3.308-1.145-6.016-1.773-10.1-.117-2.148.636 1.686.882 1.2-.455-2.075-.573-3.624-.755-5.412a53.96 53.96 0 0 0-.37-2.956l-.188-1.125-.234-1.3-.6-2.952c1.192 7.483.302 3.94-.782-.942l4.455-4.78-1.448 1.38 1.644-1.905c.398-.458.795-.882 1.2-1.272.8-.78 1.57-1.425 2.34-1.932-1.157 1.236-2.34 2.406-3.114 3.218-.676.716-1.426 1.545-.738 1.146l2.477-2.467 2.505-2.6-1.452 1.806 7.895-7.8c1.02-1.472 2.787-3.867 3.537-5.302 2.123-1.638 4.6-4.4 6.326-6.26l-.742.923c3.7-3.2 11.344-11 11.8-11.85 2.694-2.25-16.37 18.645 1.147 1.178 6.73-6.565 3.52-4.78 7.13-8.765 0 0-.147.282.278-.044 2.995-2.823 3.035-3.374 5.35-5.846-1.868 1.617-4.435 4.108-5.16 5.012.604-1.153 6.16-5.957 8.197-8.385-2.496 3.302 5.862-5.383 3.8-2.937 6.14-5.426 12.063-11.886 14.82-15.215 4.522-3.317 6.902-6.872 13.608-12.905-1.008.95-2.727 2.8-4.173 4.08-3.333 3.94 6.87-6.333 1.522-.5 1.157-1.236-.098-.272-1.285.995-2.133 2.157-4.027 4.307-3.323 3.937l5.565-4.813-1.753 1.875 8.36-7.32c.014-.103-.05-.083-.296.086s-.56.4-.772.574c.28-.267.622-.574.856-.813a15.04 15.04 0 0 1 .562-.601l.477-.678c.17-.223.25-.496.393-.738.464-1.02.67-2.173.572-3.3a6.84 6.84 0 0 0-1.126-3.21c-.652-.945-1.557-1.708-2.573-2.202-.237-.16-.52-.217-.78-.32-.257-.12-.534-.172-.8-.22l-.4-.092c-.152-.032-.396-.058-.6-.087l-6.042-.84-8.966-1.3c-2.307 1.077-27.682-3.418-36.863-3.885 2.486-.044 3.915-.55 2.455-1.058 2.028.236 6.244.278 10.808 1.06.7.33 6.32 1.402 2.643 1.127 12.682 1.682-1.626-.855 2.186-.827-14.046-1.904-22.392-2.3-31.292-3.25l-.2-.196-6.73-.662c5.45.886 5.066 1.63-1.936.333l.862.086c-3.97-.913-12.38-1.74-18.647-2.703l-4.32-.165c-6.276-.965-6.424-1.848-8.394-2.65-3.724-.564-6.866-.934-9.718-1.208l-4.304-.383-5.87-.575-3.505-6.337c-1.08-3.03-7.6-16.437-3.7-9.555-4.267-7.904-5.252-5.398-11.075-19.693l2.1 3.424-19.175-37.925c3.56 4.3-6.96-17.068-6.986-19.974.063.78-2.47-4.135-2.965-4.8-.403-1.152-1.168-3.025-2.35-4.83 2.313 5.26-2.962-3.038 2.352 6.578a112.75 112.75 0 0 1-5.385-8.447c-1.008-1.735-2.082-3.668-3.238-5.85l-1.798-3.467-.47-.93-.238-.475c-.073-.14-.18-.373-.214-.403-.098-.146-.188-.296-.27-.456-.088-.156-.23-.276-.33-.43l.464-.26c-.02.013.238.227.433.673l.2.35 3.162 6.685c-.08-1.044 2.085 3.412 3.145 5.154-3.83-8.094-3.293-7.706-2.82-7.34.236.182.457.358.108-.535-.174-.447-.5-1.16-1.02-2.276l-.96-1.988c-.204-.448-.364-.668-.535-.972-.144-.318-.415-.577-.648-.894-.525-.344-.663-.336-.918-.58-.305-.163-.733-.664-2.23-1.137.703.208 1.107.4 1.118.27.001-.053-.108-.16-.354-.34-.13-.076-.306-.14-.516-.232-.207-.097-.458-.2-.77-.244 0 0-.607-.06-1.198.045-.294.005-.58.094-.8.152l-.35.086c-1.056-.024-1.23-.13-.83-.317.2-.07.518-.26.937-.288l.67-.103.733.01c.254-.018.5.033.74.075.238.05.487.046.698.125.42.15.824.2 1.063.326.495.2.608.1-.28-.482 1.3.42 2.758 1.335 3.734 2.724l.347.53c.116.168.238.348.366.6l.748 1.364 1.42 2.562c1.8 3.197 3.093 5.332 2.9 4.16-1.223-2.615-2.192-4.47-3.037-5.952a58.24 58.24 0 0 0-1.191-1.993c-.188-.288-.373-.624-.556-.847l-.533-.684c-.777-.84-1.632-1.595-2.904-2.28-1.27-.653-3.002-1.254-5.438-1.038l-1.093-.06c-1.687.606-2.377 1.462-2.875 2.062-.464.662-.716 1.2-1.065 2-.108.024-.286.196-.6.587-.333.546-.792 1.38-1.416 2.593-2.565 6.728-4.552 11.054-6.815 17.3 3.646-8.014 5.426-11.33 7.245-14.707l1.4-2.618.762-1.457.2-.4c.063-.113.105-.162.158-.248.1-.156.197-.318.292-.5.475-.62 1.068-1.284 1.948-1.833a6.25 6.25 0 0 1 3.441-.932l-.397.008a7.8 7.8 0 0 1-.514.084 2.08 2.08 0 0 0-.603.124c-.207.077-.445.087-.663.203a5.69 5.69 0 0 0-2.519 1.839c-.14.23-.3.443-.434.652a9.75 9.75 0 0 1-.313.677 59.68 59.68 0 0 0-.857 2.092c-.5 1.268-.778 2.18-.702 2.438l-.398-.386c-2.368 5.418-4.738 10.832-8.177 17.408l1.738-4.192c-4.022 8.98-7.952 14.303-10.598 21.648 1.255-2.437 2.225-4.438 2.902-6-2.03 4.642-4.887 10.313-7.4 15.206l-4.256 10.6c-.2-.206-3.396 6.255-2.23 2.95-3.987 7.17-5 10.98-6.97 15.285-4.216 7.276 2.993-6.628 2.703-7.688-5.335 10.26-10.56 21.344-13.02 27.403 1.14-2.067 1.727-3.054 1.8-2.9-.303.24-2.327 4.436-3.48 6.763l-.482 1.752c-2.122 3.776-2.033 3.14-.637-.274-.715 1.394-1.388 2.935-2.074 4.507-.243.584-.94 2.087-1.5 3.288l-1.792 3.712a78 78 0 0 1-5.103.557l4.892-.848 3.135-6.52 2.058-4.17c1.3-2.637 2.437-4.914 3.033-6.37-1.703 3.658-3.036 6.277-4.237 8.502l-4.377 8.023-4.6.517-4.214.507c-2.687.343-5.934.82-10.113 1.527-.25-.13 2.836-.9-.73-.386-8.243 1.325-2.057 1.012-4.582 1.764 6.33-1.135 9.318-1.358 13.07-1.466l-1.657.522c-.278-.105-4.272.467-5.47.5l-.946.7c.384-.7-6.073-.235-11.06.728 5.14-.287 3.765-.1 5.25.395-6.963 1.697-8.063.5-15.874 2.36.564-.286 7.452-1.438 1.46-.724-4.947.7-4.217 1.08-7.5 1.715 3.658-1.06 2.644-1.304 6.6-2.506 8.77-1.34 3.543-.508 12.094-1.98l-7.33.618c7.428-1.165 5.324-1.378 5.908-1.665-12.782 1.32-9.46 2.177-17.655 3.23-3.9.927 7.668-1.038 1.557.23-7.655 1.036-1.694.6-10.24 2.063l1.402-.446c-2.667.074-5.206.83-8.232 1.323-3.315.642 4.04 1.248-9.678 3.277.65-.242.885-.37.876-.43l12.756-6.3-46.1 6.3c-3.916-.298 11.4-2.37 10.35-2.6l7.37-.894c-.36.42-15.372 2.348-8.646 2.02 12.93-2.144 18.876-2.585 31.072-5.115-3.946-.296-16.183 2.506-24.282 3 3.37-.433 6.192-.94 8.93-1.46L90.5 200.9l-1.9.485 10.293-1.292c-7.652 1.036-14.028 2.444-14.445 3.14l1.36-.175-2.733.595-5.4.667zm246.56 213.767c-.443-.165-.803-.274-1.086-.323.293.05.04-.15 1.086.323zm-117.48-263.54l-13.837 27.27c9.02-15.465 15.42-26.308 2.207.4l-.815 1.855 1.618-3.076 1.877-3.7 4.105-8.43 4.534-11.928 2.153-5.827c.55-1.516.875-2.467.823-2.442-1.113 1.47-1.94 4.006-3.494 6.912l.83-1.036zm5.1-5.644c2.708-5.172 1.873-4.103 2.05-5.025l-2.63 5.54c.4-.668.647-.972.58-.516zm1.674-4.82c-.296.585-.554 1.082-.713 1.33l.713-1.33zm-86.442 52.07l.6-.1-4.167.547c.56-.04 1.62-.164 3.576-.446zm11.8-1.102l1.306-.648-3.906.515c.468.14.952.25 2.6.133zm37.897-3.998c2.297-.885 10.25-2.065 10.648-2.76.484-.234-1.198-.05-3.084.17l-6.713.922c-.07.103-.528.256-1.304.45 2.354-.263 3.942-.335 3.048.186-6.145.04-5.3 1.377-11.853 2.1-2.008.74 7.3-.617 9.258-1.08zm217.754 82c-.172.1-.73.438-1.5.942l3.103-3.458c6.016-5.673 11.4-9.647 16.175-15.398 2.63-2.292 4.254-3.297 5.767-4.297l-3.4 3.15c-14.146 15.38-8.628 6.734-20.154 19.06zm49.04-68.917c.454.073.745.195.945.22a2.3 2.3 0 0 0 .285.045l-.897-.274c-.304-.066-.613-.105-.917-.157-.623-.116-1.173-.144-1.738-.195l-3.338-.295-6.42-.606-11.744-1.25c-7.312-.838-13.55-1.67-18.474-2.4 1.846.73 10.635 2.367 14.806 3.164l-3.795-.024-2.265-.743-6.526-.47c1.756.6 6.982 1.295 10.43 2.07.317-.055 11.568.966 14.734 1.1l-8.867-1.653c2.388.494 14.237 2.095 18.948 2.645.13-.246-7.898-1.82-8.998-1.406-.906-.524 8.416.827 2.58-.44 1.76.15 3.773.387 5.882.67l3.215.456a13.31 13.31 0 0 1 1.604.302c.538.088 1.033.314 1.534.502 1.994.815 3.552 2.346 4.474 3.938.928 1.6 1.307 3.232 1.305 4.48 0 0-.134.223-.288.43l-.342.403c-.034.318-.034.6-.075.876l-.136.73c-.046.454-.193.805-.254 1.13l-.094.458-.126.393-.2.744c-.08.244-.204.476-.334.75s-.3.58-.564.887c-.47.643-1.36 1.445-2.628 2.563 1.47-1.48 2.135-2.194 2.26-2.5.167-.298-.04-.196-.27-.065-.218.13-.496.3-.444.152.035-.076.116-.222.324-.485l.398-.483c.15-.205.298-.47.498-.763-.307.344-.485.492-.645.588-.176.082-.318.123-.525.254-.318.214-1.277.978-3.63 3.3-3.364 4.486-5.4 4.5-8.62 8.7-2.693 2.25 2.334-3-2.677 1.723-5.34 5.837-4.786 5.752-4.697 6.543 5.4-5.03 5.37-6.377 9.803-10.483l-7.852 9.156c1.692-1.437 2.876-2.57 3.83-3.56-1.686 1.73-3.043 3.275-4.146 4.657l-1.763 2.165c4.88-4.75 9.22-8.958 10.173-9.513l-.46.874c1.922-1.482 4.582-4.382 5.723-5.806 2.166-2.163 4.285-4.296 5.974-6.155 1.704-1.96 2.15-3.904 2.55-4.512 0 0-.02.152-.067.378l-.17.84c-.046.314-.175.6-.246.825l-.13.373c.872-1.838 1.156-3.446 1.115-4.827.038-.692-.113-1.33-.167-1.953-.175-.602-.264-1.213-.514-1.8-.43-1.178-1.1-2.335-2.167-3.573-1.1-1.172-2.708-2.473-5.172-3.125zM267.613 77.887c1 4.567 2.34 9.495 11.896 28.416l-.807-1.462c4.098 9.9 10.048 18.266 15.1 30.264-3.168-5.47-2.983-5.18-6.928-10.998l3.277 5.927c-1.375-1.412 1.894 4.5 4.065 8.965l-2.588-3.6c-1.133-2.765-4.483-9.725-4.53-9.45.82 1.48-3.695-9.55-6.742-15.25-.145.814 6.07 12.956 2.656 7.85 2.676 4.665 2.533 5.478 5.17 10.433-2.683-4.676-1.188-.898-3.28-4.333l4.22 8.176c-.04.287-6.254-11.854-3.458-4.828 1.86 3.2 5.928 12.16 6.48 12.085l-.045.275c2.95 6.234 2.012 2.4 5.5 10.115.282-.027-.268-1.557-1.66-4.253-1.24-2.247-1.74-2.438-4.143-7.14-.678-2.306 2.773 5.734 1.776 2.138-.495-1.787-6.44-12.37-4.026-9.252l2.944 6.222c.552-.076 2.73 4.407 3.05 4.093 2.037 3.688 3.262 7.513 5.576 11.165 1.096 1.45.286-1.626 3.186 4.874 1.76 5.33 9.143 19.946 11.956 25.396.837 1.5 1.673 2.98 2.45 4.554l1.315.034c-.065-.07-.495-.168-1.134-.283-.3-.683-.74-1.574-1.2-2.5l-1.25-2.542c-.646-1.33-.968-2.072-.2-.884l2.84 5.623 2.917.354-.8.1c.777.125 1.568.234 2.354.332l2.102.23 3.967.37c-1.317 0-3.463-.254-5.14-.418l-1.23-.113a15.21 15.21 0 0 0-.996-.056c-.523-.006-.743.056-.437.24l2.7.488 1.736.344c1.074.208 2.113.384 3.9.592-.786-.075-1.467-.12-1.38-.03 7.838 1.38 7.7.496 9.7.606 8.018.442-7.88-1.816-6.788-2.23l23.15 3.06c-2-.1-4.012-.223-3.3.108 5.63 1.075.067.44 8.028 1.57-.46-.826 10.088.993 15.77 1.38 2.58.687 3.113.827-2.632 0 .6.58 8.326 1.514 11.062 1.956 1.605.1 4.324.435 6.057.576-2.265-.575-1.24-.735 3.77-.217l.305-.06c-8.143-1.318-20.752-3.7-25.94-3.938l1.48-.03c-9.387-1.8-20.684-2.12-24.907-3.665.454-.303-1.886-.36-1.646-.857l-7.015-.603 1.48-.026-11.85-1.602.327-.052-1.765-.103-1.394-.055-2.284-.055-3.76-6.23c-.212.1-.1.452-1.103-1.17a54.99 54.99 0 0 1-2.14-4.106l-.004-.008c-1.238-2.66-1.807-4.56-3.285-7.858l4.97 9.945c.752.64.696-.388-1.47-5.394 1 2 1.685 2.692.505.2-.226-.227-3.448-6.422-2.55-3.9-4.802-9.408-11.45-25.194-19.2-39.245 5.498 10.133-3.617-8.512 2.187 2.886-3.4-8.282-3.95-6.616-7.9-14.82-.142-.795 2.166 4.456 3.488 6.135-6.47-13.678-12.202-22.445-18.5-35.655l.16-.777-4.18-8.02zm-22.946.808l-3.645 7.766.386-.75-3.394 7.764c2.472-4.58 4.47-7.415 1.47-.778.1-.638-1.073 1.16-.058-1.16-2.42 4.245-7.412 13.715-5.517 11.54 3.524-8.713 1.808-1.544 4.604-8.377-1.32 3.757-3.246 7.172-4.706 10.614 1.36-3.662-1.216.4-3.97 5.56-1.018 2.33-4.163 8.446-5.857 12.318 1.07-1.15-.326 2.26 2.82-3.858-1 2.316-2.655 5.86-4.8 9.68.7-1.6 2-4.334 1.752-4.218-1.62 2.35-3.067 5.322-4.034 6.88l-1.86 3.935c.224-.365.433-.674.607-.88l-1.784 4.5c2.66-5.868 1.504-2.577 1.704-2.386-.396-.4-1.896 3.687-2.855 5.67l2.618-4.047c-.774 2.2-3.977 7.15-2.947 6.3 4.694-9.012 6.337-12.556 10.254-20.867l-2.04 3.152c4.313-9.43 3.495-5.404 8.624-15.842 1.786-4.5 7.716-15.696 7.113-16.262-.43 1.415 3.836-6.182 5.28-9.915.325-1.067.932-2.618 1.627-4.288l1.084-2.55.546-1.258c.178-.42.355-.82.532-1.133.3-.697.756-1.242 1.098-1.737.42-.423.725-.827 1-1.045.516-.453.546-.558-.274-.07-.312.284-.62.598-.944.913-.272.36-.56.727-.825 1.112-.22.422-.455.813-.672 1.263l-.642 1.386c-.86 1.83-1.732 3.558-2.584 4.75l2.955-6.328-2.38 3.932c1.174-2.06.727-2.025-.276-1.305zm-88.96 108.087l-.268.03.297-.04-.03.012zm213.77 173.858c.517 1.948 1.327 6.847 1.545 5.822-.4.2-1.565-8.73-1.545-5.822zm.593 5.922c.16.327.28.06.67 2.253l-1.145-6.026.474 3.773zm-1.82 6.626c.85 3.063 1.364 5 2.175 9.907-.7 2.013-1.66-7.962-2.997-10.017 1.442 8.985 2.8 11.585 4.162 18.947-.2-3.727-2.515-18.7-3.34-18.837zm-1.976-3.76l1.087 4.948-.025-.503-1.087-4.95zm31.176-90.754c.554-.086 2.588-2.516 3.745-3.752l-3.745 3.752zM225.997 405.6l30.003-16 .42.094-.42-.2-30.003 16.117zm187.096-208.806c10.302 1.188 14.94 1.296 25.4 2.673-13.65-2.645-18.3-1.626-29.74-3.967l4.33 1.294zm4-2.04c1.612.853-8.018-.44-6.593.22 6.935.857 3.304-.1 9.57.854l-2.976-1.074zm28.587 23.33c-.02-.012.228-.425.353-.876l.17-.6.032-.287c.063.015-.468 1.38-.525 1.354l-.03.42zM370.256 188.5l1.153.028-5.115-.94zm2.308.052l-1.154-.025 1.154.025zm72.852 27.044c.013.003-.05.13-.128.32l-.116.33a4 4 0 0 0-.205.344c-.095.257-.32.436-.417.6s-.24.236-.226.247l-.078.15-.077.163c-.022.056-.048.12-.163.252l-.73.907.94-.956.077-.108.177-.223c.146-.136.245-.323.346-.505.438-.714.6-1.532.6-1.532zm-27.82-12.536l4.163.407c-.825-.08-6.447-1.153-4.163-.407zm-78.714-19.383l-5.065-.5.505.134 5.048.498zm46.102 16.347c2.8.88-8.27-1.074-2.45.192 5.24.7 3.153.138 2.45-.192z"/><path d="M324.733 188.035l-2.184-.248 2.184.248zm0 0l5.88.9c-2.702-.608-3.708-.674-5.88-.9zm-14.497-19.138l.858 1.815c-1.115-1.737-.654-.88.323.68.956 1.9 1.036 1.727 1.24 1.9l.743 1.093-.925-1.5c-1.454-2.958-2.364-4.75-2.238-4.008zm-34.6-88.017l3.392 8.285c3 6.364 3.1 5.106 5.1 8.848l-8.493-17.133zm8.493 17.133l1.257 2.48-1.257-2.48zm44.25 94.697l-4.64-.1 1.684.167zm-58.25-122.8c.382.467.703 1.083 1.074 1.7l.27.482.232.437.278.584.9 2.038c.252.097-.38-1.273-1.004-2.512l-.116-.23-.217-.386-.425-.724-.733-1.135c-.44-.554-.613-.74-.25-.263zm7.04 29.826c.133.773 2.353 4.97 3.13 6.74-1.184-2.505-1.58-4.828-3.13-6.74zM241.333 73.8c.195-.437 1.046-1.803 1.606-2.497.64-.686 1.04-.953.72-.306.8-1.32 2.088-2.664 2-2.8-.037-.064-.418.182-1.282.994-.432.404-.903 1.03-1.506 1.815-.288.402-.548.9-.85 1.417l-.42.792-.27.596zm29.897 13.765l.357 1.004 2.456 4.446zm3.176 18.617c2.916 4.925-3.064-8.583 1.616.067-5.202-11.572-.123 1.145-4.198-7.273 2.292 4.977 2.986 7.627 2.582 7.206zm-2.582-7.206l-1.114-2.342 1.114 2.342zm-38.73 8.122l.716-1.785-.716 1.785zM258.678 75.4l.197.065c.126.042.274.155.48.254.22.085.423.254.655.426.26.147.45.393.687.604.25.204.384.497.596.72l.073.088.094.158.18.305 1.014 1.712-1.236-2.18-.502-.735c-.225-.2-.398-.47-.636-.68-.926-.866-2.196-1.454-3.4-1.58-1.204-.145-2.275.18-2.9.553-.625.372-.884.68-.7.75 1.06-.54 2.353-.85 3.518-.7 1.16.13 2.104.614 2.685.9-.001 0-.796-.7-.825-.65zm-54.508 70.654l1.405-3.43-2.1 4.104c.672-1.14.044 1.215.706-.675z"/><path d="M203.058 147.525l.407-.794c-.1.17-.232.42-.407.794zM239.97 92.45l3.238-6.76c-.573.883-3.723 7.007-3.238 6.76zm-46.467 77.35l2.6-5.52-2.903 6zm-14.883 11.406l-1.06.03-4.97.96 1.075-.033zm29.26-14.072c1.893-3.677 2.797-6.833 2.208-5.917l-3.525 7.2c1.36-1.6.97-2 3.144-6.112l-1.827 4.828zM115.402 280.72c-1.52-1.005-7.664-7.27-7.766-7.822.943.722 4.44 3.944 2.447 1.7l-5.555-4.242c-6.244-6.817 5.794 4.107 9.266 7.076-6.658-6.64-9.04-8.2-16.2-15.175 2.06 2.113 3.25 3.564 4.24 4.78-.17.66-6.66-6.032-11.464-10.65 2.858 3.145.95 1.587-1.424-.404-.4-.375-.7-.6-.915-.764l-.8-.673.573.557c-.087.008-.017.2.32.67 4.123 3.78 6.84 7.118 9.412 9.635-1.876-3.17 8.932 8.396 12.378 11.342l3.807 3.58 1.4 1.362c.208.35-.283.057-2.55-1.887 1.913 1.6 7.806 7.437 7.473 6.682L133.6 299.7a18.95 18.95 0 0 1 1.046 1.24c.512.414.625.455.598.36l9.623 9.367-10.302 60.374 2.388-11.546c-.436 6.313 1.277-6.76 1.56-4.837-.263 2.826-1.03 6.896-1.592 9.304.145.957 1.005-2.463 1.295-2 2.136-10.187.968-12.002 2.906-21.986.292.458.075 3.6 1.152-2.958l-.208 1.68c1.4-10.574 2.218-8.046 2.365-14.827l.5.263c.184-2.087.584-5.003 1.047-8.063l.72-4.6.204-1.448-.578-.526.164.02-.607-.466-.218-.196-1.567-1.42-2.345-2.146-2.894-2.76c-1.65-1.625-3.433-3.44-9.5-9.178l5.933 4.924c-3.948-4.203-5.344-4.63-8.257-7.566.283.134-.135-.812 2.73 1.847l-15.163-13.47c-3.74-3.092.43.96.813 1.646z"/><path d="M97.595 262.267l-2.657-2.617 2.657 2.617zm35.997 114.486l.975-5.7-.975 5.7zM75.996 242.82c2.325 2.647-2.15-1.563-2.73-1.846l9.017 8.776c.1-.185 1.152.52 1.1.212l-7.387-7.142zm8.628 9.748c.404.196 1.445 1.035 2.598 2l-4.94-4.807c-.075.14.38.778 2.34 2.817zm6.614-8.692l1.607 1.54 2.522 2.24zm24.322 24.957c-1.7-2.078-5.468-5.434-6.73-6.557l6.73 6.557zm-2.843-7.383l4.137 3.8-.333-.408zm15.68 157.86l-.43 2.707.43-2.707z"/><path d="M136.036 371.804c-2.845 13.082.996-8.72-.46-4.708l-.983 7.217-.095-.645-1.436 8.76c.65-1.736.904-3.08 1.197-2.63-2.144 11.655-1.06 3.608-2.983 12.1l-2.174 13.065.074-1.075c-.18 1.1-.22 1.595-.225 1.98l-3.832 23.05c-.072.55-.135 1.16-.183 1.736-.07.584-.043 1.17-.018 1.753.037.583.032 1.168.15 1.736.297 2.3 1.17 4.46 2.277 6.356 2.322 3.78 5.9 6.27 9.26 7.282 3.376 1.07 6.394.87 8.393.483 1-.223 1.77-.472 2.295-.63.514-.188.78-.314.78-.314l1.065-.5.442-.224.24-.143.735-.45c.375-.24.53-.368.535-.417.008-.1-.6.113-1.25.35l-1.228.43c-.47.153-.85.255-1.027.268s-.152-.062.18-.27c.166-.104.407-.244.734-.427l.55-.3.427-.28-.394.206c-.134.07-.4.2-.6.28l-1.315.566c-.45.173-.928.287-1.4.423s-.956.26-1.455.312c-1.976.37-4.065.213-6.067-.22-2-.472-3.886-1.395-5.528-2.538-1.577-1.224-2.995-2.617-3.95-4.208-2.054-3.112-2.576-6.502-2.556-8.928l.17-2.663c.022-.48.001-.794-.07-.908.046.33.14.977.546-.9l.33-5.467-1.066 5.084c.336-5.496 3.456-22.896 4.362-25.984-1.498 9.942.064 5.092-2.7 18.83.288-.6 1.042-3.062.6.063l7.635-47.502zm87.434 34.47l-.084.118c.246-.17.32-.237.084-.118zm-4.916 2.483l-6.747 4.354 11-5.854.568-.865c-.917.625-4.667 2.885-6.26 3.5l1.428-1.135zm-14.764 9.057c5.6-3.185 5.017-3.544 1.782-2.147 5.107-2.994 3.057-.9 6.37-3.337-.316-.315-6.65 3.298-8.097 4.146l-.056 1.338zm-42.2 21.836l1.5-1.06-3.98 2.018zm1.48-1.06l3.95-2.003c-.355-.018-.706-.033-1.403.192l-2.547 1.8zm14.314-7.26l5.772-2.93-5.772 2.93zm-4.554 2.224l.168-.001 4.384-2.223-4.552 2.224zm-5.8 3.034c.83.03 1.777.023 7.4-3.058l-1.4.023-5.98 3.035zm-25.545-146.225l3.8 3.367-.34-.42-3.787-3.365zm14.198 27.06l-.294 3.058.294-3.058z"/><path d="M154.793 339.3c-1.417 5.8.847-8.192-1.2 2.65-.546.893-.164-4.288.904-9.375.3.47-.625 5.027.28 1.943.167-3.472.672-4.716-.072-3.624.644-5.777.37-6.48.682-10.423-.947 6.955-3.994 21.378-4.804 30.272-.18 4.95 1.212 2.167 2.148 2.348.346-.7 2.6-13.2 2.06-13.8zm2.522-9.078l.825-5.227c-.398.395-.463 3.03-.825 5.227zm-17.785 61.23c.045.542-.633 5.486-.22 4.47l1.1-7.48c-.323 1.744-.592 2.333-.9 3.012zm1.38-6.293l-.488 3.28.488-3.28z"/><path d="M139.387 391.803l.144-.34c-.01-.1-.042-.094-.144.34zm54.36 31.2c.027.28 2.937-1.425 4.398-2.28l-4.398 2.28zm106.792-10.477l2.538 1.57-2.538-1.57zm43.93 15.025c.1-.004.314.06.596.162-.278-.1-.48-.166-.596-.162z"/><path d="M345.064 427.712c1.9.755 7.303 3.977 9.454 4.734l-.3-.044 3.81 1.78c-3.5-1.807-10.8-5.7-12.965-6.47z"/></svg>