<svg xmlns="http://www.w3.org/2000/svg" xmlns:xlink="http://www.w3.org/1999/xlink" viewBox="0 0 1074.4 584.2"><style><![CDATA[.H{fill:none}.I{stroke:#3f3d56}.J{stroke-miterlimit:10}.K{fill:#57b894}.L{enable-background:new }]]></style><ellipse cx="540.6" cy="479.3" rx="527.5" ry="34.9" fill="#f2f2f2"/><path d="M520.4 97c-85.9 0-147.7 55.1-147.7 183.8 0 145.8 61.7 184.4 147.7 184.4s151.3-42.3 151.3-184.4C671.8 128.9 606.4 97 520.4 97zm.6 319.8c-59.5 0-90.6-34.9-90.6-135.9 0-89.1 32.4-136.1 91.9-136.1s91.9 30.9 91.9 136.1c0 98.4-33.7 135.9-93.2 135.9z" fill="#2f2e41"/><path d="M321.3 363.5h-35.5V258.9c0-11.6-9.4-21-21-21h-8.3c-11.6 0-21 9.4-21 21v104.6H135.3a12.04 12.04 0 0 1-12-12c0-1.9.5-3.9 1.4-5.6l106.1-200.8c5.4-10.2 1.5-22.9-8.7-28.3-.3-.1-.6-.3-.8-.4l-6.3-3c-10.1-4.8-22.2-.8-27.4 9.1l-129.4 242c-2.2 4.1-3.4 8.7-3.4 13.4 0 15.7 12.7 28.4 28.4 28.4h152.3v66.2c0 13.9 11.2 25.1 25.1 25.1s25.1-11.2 25.1-25.1v-66.2h35.5c11.8 0 21.4-9.6 21.4-21.4.2-11.8-9.4-21.4-21.3-21.4zm658 0h-35.5V258.9c0-11.6-9.4-21-21-21h-8.3c-11.6 0-21 9.4-21 21v104.6H793.3a12.04 12.04 0 0 1-12-12c0-1.9.5-3.9 1.4-5.6l106.1-200.8c5.4-10.2 1.5-22.9-8.7-28.3-.3-.1-.6-.3-.8-.4l-6.3-3c-10.1-4.8-22.2-.8-27.4 9.1l-129.4 242c-2.2 4.1-3.4 8.7-3.4 13.4 0 15.7 12.7 28.4 28.4 28.4h152.3v66.2c0 13.9 11.2 25.1 25.1 25.1s25.1-11.2 25.1-25.1v-66.2h35.5c11.8 0 21.4-9.6 21.4-21.4.2-11.8-9.4-21.4-21.3-21.4z" fill="#24c6f7"/><path d="M331.1 351.3h-35.5V246.6c0-11.6-9.4-21-21-21h-8.3c-11.6 0-21 9.4-21 21v104.6H145.1a12.04 12.04 0 0 1-12-12c0-1.9.5-3.9 1.4-5.6l106.1-200.8c5.4-10.2 1.5-22.9-8.7-28.3-.3-.1-.6-.3-.8-.4l-6.3-3c-10.1-4.8-22.2-.8-27.4 9.1L68 352.3c-2.2 4.1-3.4 8.7-3.4 13.4 0 15.7 12.7 28.4 28.4 28.4h152.3v66.2c0 13.9 11.2 25.1 25.1 25.1s25.1-11.2 25.1-25.1v-66.2H331c11.8 0 21.4-9.6 21.4-21.4.2-11.8-9.4-21.4-21.3-21.4zm666.6 0h-35.5V246.6c0-11.6-9.4-21-21-21h-8.3c-11.6 0-21 9.4-21 21v104.6H811.7a12.04 12.04 0 0 1-12-12c0-1.9.5-3.9 1.4-5.6l106.1-200.8c5.4-10.2 1.5-22.9-8.7-28.3-.3-.1-.6-.3-.8-.4l-6.3-3c-10.1-4.8-22.2-.8-27.4 9.1l-129.4 242c-2.2 4.1-3.4 8.7-3.4 13.4 0 15.7 12.7 28.4 28.4 28.4h152.3v66.2c0 13.9 11.2 25.1 25.1 25.1s25.1-11.2 25.1-25.1V394h35.5c11.8 0 21.4-9.6 21.4-21.4.1-11.7-9.5-21.3-21.3-21.3zM540 86c-85.9 0-147.7 55.1-147.7 183.8 0 145.8 61.7 184.4 147.7 184.4s151.3-42.3 151.3-184.4C691.4 117.8 626 86 540 86zm.6 319.8c-59.5 0-90.6-34.9-90.6-135.9 0-89.1 32.4-136.1 91.9-136.1s91.9 30.9 91.9 136.1c0 98.4-33.7 135.9-93.2 135.9z" class="H I J"/><path d="M1006.9 349.5c10.8 3.9 22.7-1.6 26.7-12.4 3.9-10.8-1.6-22.7-12.4-26.7-3.7-1.3-7.6-1.6-11.5-.8l.5 10.7-5.1-9.2c-5 2.3-8.8 6.6-10.7 11.7-.7 1.8-1.1 3.7-1.2 5.6-.7 9.4 4.9 18 13.7 21.1z" class="K"/><path d="M1031.9 473.8c-1.8-9.1 6-17.2 13.6-22.4s16.6-10.4 19.2-19.3c3.8-12.8-7.4-24.5-16.1-34.6a120.28 120.28 0 0 1-16.5-24.6c-1.8-3.5-3.5-7.2-4-11.2-.7-5.7 1.1-11.3 3-16.7 6.1-18 12.7-35.9 19.6-53.7m-43 55.5c10.8 3.9 22.7-1.6 26.7-12.4 3.9-10.8-1.6-22.7-12.4-26.7-3.7-1.3-7.6-1.6-11.5-.8l.5 10.7-5.1-9.2c-5 2.3-8.8 6.6-10.7 11.7-.7 1.8-1.1 3.7-1.2 5.6-.6 9.3 5 17.9 13.7 21.1z" class="H I J"/><path d="M1029.4 287.6c2.4-6.7 8.1-11.6 15-13.2l1.7 10.2 3.2-10.7c11.5.2 20.7 9.6 20.5 21.1s-9.6 20.7-21.1 20.5-20.7-9.6-20.5-21.1a19.89 19.89 0 0 1 1.2-6.8z" class="K"/><path d="M1030.5 283.9c2.4-6.7 8.1-11.6 15-13.2l1.7 10.2 3.2-10.7c11.5.2 20.7 9.6 20.5 21.1s-9.6 20.7-21.1 20.5-20.7-9.6-20.5-21.1c0-2.3.5-4.6 1.2-6.8z" class="H I J"/><use xlink:href="#B" class="K"/><use xlink:href="#B" x="1" y="-3.7" class="H I J"/><path d="M1023.3 432.2c2 11.3 12.8 18.9 24.1 16.9s18.9-12.8 16.9-24.1-12.8-18.9-24.1-16.9c-5.1.9-9.7 3.7-12.9 7.8l9.3 14-12.7-7.4c-.9 3.1-1.2 6.4-.6 9.7z" class="K"/><path d="M1024.2 429.4c2 11.3 12.8 18.9 24.1 16.9s18.9-12.8 16.9-24.1-12.8-18.9-24.1-16.9c-5.1.9-9.7 3.7-12.9 7.8l9.3 14-12.7-7.4a19.94 19.94 0 0 0-.6 9.7z" class="H I J"/><path d="M9 400.2c7.1 2.6 14.9-1.1 17.5-8.2s-1.1-14.9-8.2-17.5c-2.4-.9-5-1.1-7.5-.5l.3 7-3.3-6c-3.3 1.5-5.8 4.3-7 7.7-.4 1.2-.7 2.4-.8 3.7-.4 6.1 3.3 11.8 9 13.8z" class="K"/><path d="M25.5 481.9c-1.2-6 3.9-11.3 8.9-14.7s10.9-6.8 12.6-12.7c2.5-8.4-4.9-16.1-10.6-22.8-4.2-4.9-7.9-10.3-10.9-16.1-1.3-2.3-2.2-4.8-2.6-7.3-.5-3.7.7-7.4 2-11 4-11.8 8.3-23.6 12.9-35.2M9.6 398.4c7.1 2.6 14.9-1.1 17.5-8.2s-1.1-14.9-8.2-17.5c-2.4-.9-5-1.1-7.5-.5l.3 7-3.3-6c-3.3 1.5-5.8 4.3-7 7.7-.4 1.2-.7 2.4-.8 3.7-.4 6.1 3.2 11.8 9 13.8z" class="H I J"/><path d="M23.8 359.5c1.6-4.4 5.3-7.6 9.8-8.7l1.1 6.7 2.1-7c7.6.1 13.6 6.3 13.5 13.9S44 378 36.5 377.9 22.9 371.6 23 364c0-1.5.3-3 .8-4.5z" class="K"/><path d="M24.6 357.1c1.6-4.4 5.3-7.6 9.8-8.7l1.1 6.7 2.1-7c7.6.1 13.6 6.3 13.5 13.9s-6.3 13.6-13.9 13.5-13.6-6.3-13.5-13.9c.1-1.5.3-3 .9-4.5z" class="H I J"/><path d="M34.1 431.8c7.1 2.6 14.9-1.1 17.5-8.2a13.6 13.6 0 0 0-5.4-16.1l-1.6 5.4-1.1-6.8c-7.1-2.6-14.9 1.1-17.5 8.2-2.7 7.1.9 14.9 8.1 17.5-.1 0-.1 0 0 0z" class="K"/><path d="M34.7 429.4c7.1 2.6 14.9-1.1 17.5-8.2a13.6 13.6 0 0 0-5.4-16.1l-1.6 5.4-1.1-6.8c-7.1-2.6-14.9 1.1-17.5 8.2-2.7 7.1 1 14.9 8.1 17.5z" class="H I J"/><path d="M19.8 454.5c1.3 7.4 8.4 12.4 15.8 11.1s12.4-8.4 11.1-15.8-8.4-12.4-15.8-11.1c-3.4.6-6.4 2.4-8.5 5.1l6.1 9.2-8.3-4.9c-.6 2.1-.8 4.3-.4 6.4z" class="K"/><path d="M20.4 452.7c1.3 7.4 8.4 12.4 15.8 11.1s12.4-8.4 11.1-15.8-8.4-12.4-15.8-11.1c-3.4.6-6.4 2.4-8.5 5.1l6.1 9.2-8.3-4.9c-.7 2.1-.8 4.3-.4 6.4z" class="H I J"/><g fill="#2f2e41"><ellipse cx="480.9" cy="249.1" rx="17" ry="22"/><ellipse cx="573.4" cy="249.6" rx="17" ry="22"/><path d="M560.4 314.6c0 9.9-13.9 18-31 18s-31-8.1-31-18c0-8.6 10.4-15.8 24.3-17.6 2.2-.3 4.4-.4 6.7-.4 3.7 0 7.5.4 11.1 1.2 11.7 2.6 19.9 9.2 19.9 16.8z"/></g><g class="H I"><ellipse cx="484.9" cy="244.1" rx="17" ry="22"/><ellipse cx="577.4" cy="244.6" rx="17" ry="22"/><ellipse cx="533.4" cy="309.6" rx="31" ry="18"/></g><g fill="#fff"><path d="M540.9 299.3c0 1.3-.5 2.5-1.3 3.4s-2 1.4-3.2 1.4h-10c-2.6-.1-4.6-2.2-4.5-4.8 0-1 .3-1.9.8-2.7 2.2-.3 4.4-.5 6.7-.5 3.7 0 7.5.4 11.1 1.3.3.6.4 1.3.4 1.9z"/><circle cx="484.9" cy="238.1" r="5"/><circle cx="577.9" cy="238.1" r="5"/></g><g fill="#24c6f7"><circle cx="582.9" cy="285.1" r="5" opacity=".3" enable-background="new "/><circle cx="460.9" cy="285.1" r="5" opacity=".3" enable-background="new "/></g><defs ><path id="B" d="M1045 397.6c10.8 3.9 22.7-1.7 26.7-12.5a20.91 20.91 0 0 0-8.2-24.6l-2.4 8.2-1.7-10.3h-.1c-10.8-3.9-22.7 1.7-26.7 12.5s1.6 22.8 12.4 26.7z"/></defs></svg>